<?xml version="1.0" encoding="UTF-8" standalone="no"?><svg xmlns="http://www.w3.org/2000/svg" xmlns:xlink="http://www.w3.org/1999/xlink" contentScriptType="application/ecmascript" contentStyleType="text/css" height="1670px" preserveAspectRatio="none" style="width:558px;height:1670px;" version="1.1" viewBox="0 0 558 1670" width="558px" zoomAndPan="magnify"><defs/><g><ellipse cx="293.75" cy="20" fill="#000000" rx="10" ry="10" style="stroke: none; stroke-width: 1.0;"/><rect fill="#F8F8F8" height="36.3441" rx="12.5" ry="12.5" style="stroke: #383838; stroke-width: 1.5;" width="100" x="243.75" y="50"/><text fill="#000000" font-family="sans-serif" font-size="12" lengthAdjust="spacingAndGlyphs" textLength="80" x="253.75" y="72.8281">读取 DAG 配置</text><rect fill="#F8F8F8" height="36.3441" rx="12.5" ry="12.5" style="stroke: #383838; stroke-width: 1.5;" width="176" x="205.75" y="106.3441"/><text fill="#000000" font-family="sans-serif" font-size="12" lengthAdjust="spacingAndGlyphs" textLength="156" x="215.75" y="129.1722">ClassLoader 动态加载组件类</text><rect fill="#F8F8F8" height="52.6882" rx="12.5" ry="12.5" style="stroke: #383838; stroke-width: 1.5;" width="195" x="196.25" y="162.6882"/><text fill="#000000" font-family="sans-serif" font-size="12" lengthAdjust="spacingAndGlyphs" textLength="72" x="257.75" y="185.5163">创建组件对象</text><text fill="#000000" font-family="sans-serif" font-size="12" lengthAdjust="spacingAndGlyphs" textLength="175" x="206.25" y="201.8604">如 VelodyneConvertComponent</text><rect fill="#F8F8F8" height="36.3441" rx="12.5" ry="12.5" style="stroke: #383838; stroke-width: 1.5;" width="239" x="174.25" y="235.3765"/><text fill="#000000" font-family="sans-serif" font-size="12" lengthAdjust="spacingAndGlyphs" textLength="219" x="184.25" y="258.2045">调用 Component&lt;M0&gt;::Initialize(config)</text><rect fill="#F8F8F8" height="52.6882" rx="12.5" ry="12.5" style="stroke: #383838; stroke-width: 1.5;" width="234" x="176.75" y="291.7206"/><text fill="#000000" font-family="sans-serif" font-size="12" lengthAdjust="spacingAndGlyphs" textLength="60" x="263.75" y="314.5487">创建 node_</text><text fill="#000000" font-family="sans-serif" font-size="12" lengthAdjust="spacingAndGlyphs" textLength="214" x="186.75" y="330.8928">node_.reset(new Node(config.name()))</text><rect fill="#F8F8F8" height="52.6882" rx="12.5" ry="12.5" style="stroke: #383838; stroke-width: 1.5;" width="216" x="185.75" y="364.4088"/><text fill="#000000" font-family="sans-serif" font-size="12" lengthAdjust="spacingAndGlyphs" textLength="130" x="228.75" y="387.2369">LoadConfigFiles(config)</text><text fill="#000000" font-family="sans-serif" font-size="12" lengthAdjust="spacingAndGlyphs" textLength="196" x="195.75" y="403.581">加载 config_file_path / flag_file_path</text><rect fill="#F8F8F8" height="36.3441" rx="12.5" ry="12.5" style="stroke: #383838; stroke-width: 1.5;" width="97" x="245.25" y="437.097"/><text fill="#000000" font-family="sans-serif" font-size="12" lengthAdjust="spacingAndGlyphs" textLength="77" x="255.25" y="459.9251">调用业务 Init()</text><rect fill="#F8F8F8" height="52.6882" rx="12.5" ry="12.5" style="stroke: #383838; stroke-width: 1.5;" width="172" x="207.75" y="493.4411"/><text fill="#000000" font-family="sans-serif" font-size="12" lengthAdjust="spacingAndGlyphs" textLength="96" x="245.75" y="516.2692">业务组件准备资源</text><text fill="#000000" font-family="sans-serif" font-size="12" lengthAdjust="spacingAndGlyphs" textLength="152" x="217.75" y="532.6133">读配置 / 建 writer / 建对象池</text><rect fill="#F8F8F8" height="36.3441" rx="12.5" ry="12.5" style="stroke: #383838; stroke-width: 1.5;" width="237" x="175.25" y="566.1294"/><text fill="#000000" font-family="sans-serif" font-size="12" lengthAdjust="spacingAndGlyphs" textLength="217" x="185.25" y="588.9575">从 config.readers(0) 组装 ReaderConfig</text><rect fill="#F8F8F8" height="36.3441" rx="12.5" ry="12.5" style="stroke: #383838; stroke-width: 1.5;" width="119" x="234.25" y="622.4735"/><text fill="#000000" font-family="sans-serif" font-size="12" lengthAdjust="spacingAndGlyphs" textLength="99" x="244.25" y="645.3016">构造框架回调 func</text><polygon fill="#F8F8F8" points="258.25,678.8176,329.25,678.8176,341.25,690.8176,329.25,702.8176,258.25,702.8176,246.25,690.8176,258.25,678.8176" style="stroke: #383838; stroke-width: 1.5;"/><text fill="#000000" font-family="sans-serif" font-size="11" lengthAdjust="spacingAndGlyphs" textLength="71" x="258.25" y="695.0856">reality mode?</text><text fill="#000000" font-family="sans-serif" font-size="11" lengthAdjust="spacingAndGlyphs" textLength="17" x="229.25" y="687.5946">yes</text><text fill="#000000" font-family="sans-serif" font-size="11" lengthAdjust="spacingAndGlyphs" textLength="14" x="341.25" y="687.5946">no</text><rect fill="#F8F8F8" height="52.6882" rx="12.5" ry="12.5" style="stroke: #383838; stroke-width: 1.5;" width="198" x="55.5" y="712.8176"/><text fill="#000000" font-family="sans-serif" font-size="12" lengthAdjust="spacingAndGlyphs" textLength="178" x="65.5" y="735.6457">CreateReader&lt;M0&gt;(reader_cfg)</text><text fill="#000000" font-family="sans-serif" font-size="12" lengthAdjust="spacingAndGlyphs" textLength="77" x="116" y="751.9898">创建裸 reader</text><rect fill="#F8F8F8" height="36.3441" rx="12.5" ry="12.5" style="stroke: #383838; stroke-width: 1.5;" width="109" x="100" y="785.5058"/><text fill="#000000" font-family="sans-serif" font-size="12" lengthAdjust="spacingAndGlyphs" textLength="89" x="110" y="808.3339">创建 DataVisitor</text><rect fill="#F8F8F8" height="36.3441" rx="12.5" ry="12.5" style="stroke: #383838; stroke-width: 1.5;" width="224" x="42.5" y="841.8499"/><text fill="#000000" font-family="sans-serif" font-size="12" lengthAdjust="spacingAndGlyphs" textLength="204" x="52.5" y="864.678">CreateRoutineFactory&lt;M0&gt;(func, dv)</text><rect fill="#F8F8F8" height="36.3441" rx="12.5" ry="12.5" style="stroke: #383838; stroke-width: 1.5;" width="289" x="10" y="898.1941"/><text fill="#000000" font-family="sans-serif" font-size="12" lengthAdjust="spacingAndGlyphs" textLength="269" x="20" y="921.0221">scheduler-&gt;CreateTask(factory, node_-&gt;Name())</text><rect fill="#F8F8F8" height="52.6882" rx="12.5" ry="12.5" style="stroke: #383838; stroke-width: 1.5;" width="228" x="319" y="712.8176"/><text fill="#000000" font-family="sans-serif" font-size="12" lengthAdjust="spacingAndGlyphs" textLength="208" x="329" y="735.6457">CreateReader&lt;M0&gt;(reader_cfg, func)</text><text fill="#000000" font-family="sans-serif" font-size="12" lengthAdjust="spacingAndGlyphs" textLength="72" x="397" y="751.9898">直接绑定回调</text><polygon fill="#F8F8F8" points="293.75,940.5382,305.75,952.5382,293.75,964.5382,281.75,952.5382,293.75,940.5382" style="stroke: #383838; stroke-width: 1.5;"/><rect fill="#F8F8F8" height="36.3441" rx="12.5" ry="12.5" style="stroke: #383838; stroke-width: 1.5;" width="137" x="225.25" y="984.5382"/><text fill="#000000" font-family="sans-serif" font-size="12" lengthAdjust="spacingAndGlyphs" textLength="117" x="235.25" y="1007.3663">reader 放入 readers_</text><rect fill="#F8F8F8" height="36.3441" rx="12.5" ry="12.5" style="stroke: #383838; stroke-width: 1.5;" width="103" x="242.25" y="1040.8823"/><text fill="#000000" font-family="sans-serif" font-size="12" lengthAdjust="spacingAndGlyphs" textLength="83" x="252.25" y="1063.7104">channel 来消息</text><rect fill="#F8F8F8" height="52.6882" rx="12.5" ry="12.5" style="stroke: #383838; stroke-width: 1.5;" width="189" x="199.25" y="1097.2264"/><text fill="#000000" font-family="sans-serif" font-size="12" lengthAdjust="spacingAndGlyphs" textLength="91" x="248.25" y="1120.0545">Reader 收到消息</text><text fill="#000000" font-family="sans-serif" font-size="12" lengthAdjust="spacingAndGlyphs" textLength="169" x="209.25" y="1136.3986">如 /apollo/sensor/lidar16/Scan</text><rect fill="#F8F8F8" height="36.3441" rx="12.5" ry="12.5" style="stroke: #383838; stroke-width: 1.5;" width="134" x="226.75" y="1169.9146"/><text fill="#000000" font-family="sans-serif" font-size="12" lengthAdjust="spacingAndGlyphs" textLength="114" x="236.75" y="1192.7427">框架回调 func 被触发</text><rect fill="#F8F8F8" height="36.3441" rx="12.5" ry="12.5" style="stroke: #383838; stroke-width: 1.5;" width="123" x="232.25" y="1226.2587"/><text fill="#000000" font-family="sans-serif" font-size="12" lengthAdjust="spacingAndGlyphs" textLength="103" x="242.25" y="1249.0868">调用 Process(msg)</text><rect fill="#F8F8F8" height="36.3441" rx="12.5" ry="12.5" style="stroke: #383838; stroke-width: 1.5;" width="128" x="229.75" y="1282.6029"/><text fill="#000000" font-family="sans-serif" font-size="12" lengthAdjust="spacingAndGlyphs" textLength="108" x="239.75" y="1305.4309">调用业务 Proc(msg)</text><rect fill="#F8F8F8" height="36.3441" rx="12.5" ry="12.5" style="stroke: #383838; stroke-width: 1.5;" width="274" x="156.75" y="1338.947"/><text fill="#000000" font-family="sans-serif" font-size="12" lengthAdjust="spacingAndGlyphs" textLength="254" x="166.75" y="1361.7751">VelodyneConvertComponent::Proc(scan_msg)</text><rect fill="#F8F8F8" height="36.3441" rx="12.5" ry="12.5" style="stroke: #383838; stroke-width: 1.5;" width="311" x="138.25" y="1395.2911"/><text fill="#000000" font-family="sans-serif" font-size="12" lengthAdjust="spacingAndGlyphs" textLength="291" x="148.25" y="1418.1192">ConvertPacketsToPointcloud(scan_msg, point_cloud)</text><rect fill="#F8F8F8" height="36.3441" rx="12.5" ry="12.5" style="stroke: #383838; stroke-width: 1.5;" width="242" x="172.75" y="1451.6352"/><text fill="#000000" font-family="sans-serif" font-size="12" lengthAdjust="spacingAndGlyphs" textLength="222" x="182.75" y="1474.4633">VelodyneParser::GeneratePointcloud(...)</text><rect fill="#F8F8F8" height="36.3441" rx="12.5" ry="12.5" style="stroke: #383838; stroke-width: 1.5;" width="170" x="208.75" y="1507.9793"/><text fill="#000000" font-family="sans-serif" font-size="12" lengthAdjust="spacingAndGlyphs" textLength="150" x="218.75" y="1530.8074">writer_-&gt;Write(point_cloud)</text><rect fill="#F8F8F8" height="52.6882" rx="12.5" ry="12.5" style="stroke: #383838; stroke-width: 1.5;" width="229" x="179.25" y="1564.3234"/><text fill="#000000" font-family="sans-serif" font-size="12" lengthAdjust="spacingAndGlyphs" textLength="107" x="240.25" y="1587.1515">发布到输出 channel</text><text fill="#000000" font-family="sans-serif" font-size="12" lengthAdjust="spacingAndGlyphs" textLength="209" x="189.25" y="1603.4956">如 /apollo/sensor/lidar16/PointCloud2</text><ellipse cx="293.75" cy="1648.0117" fill="#FFFFFF" rx="11" ry="11" style="stroke: #000000; stroke-width: 1.0;"/><ellipse cx="293.75" cy="1648.0117" fill="#000000" rx="6" ry="6" style="stroke: #7F7F7F; stroke-width: 1.0;"/><line style="stroke: #383838; stroke-width: 1.5;" x1="293.75" x2="293.75" y1="30" y2="50"/><polygon fill="#383838" points="289.75,40,293.75,50,297.75,40,293.75,44" style="stroke: #383838; stroke-width: 1.0;"/><line style="stroke: #383838; stroke-width: 1.5;" x1="293.75" x2="293.75" y1="86.3441" y2="106.3441"/><polygon fill="#383838" points="289.75,96.3441,293.75,106.3441,297.75,96.3441,293.75,100.3441" style="stroke: #383838; stroke-width: 1.0;"/><line style="stroke: #383838; stroke-width: 1.5;" x1="293.75" x2="293.75" y1="142.6882" y2="162.6882"/><polygon fill="#383838" points="289.75,152.6882,293.75,162.6882,297.75,152.6882,293.75,156.6882" style="stroke: #383838; stroke-width: 1.0;"/><line style="stroke: #383838; stroke-width: 1.5;" x1="293.75" x2="293.75" y1="215.3765" y2="235.3765"/><polygon fill="#383838" points="289.75,225.3765,293.75,235.3765,297.75,225.3765,293.75,229.3765" style="stroke: #383838; stroke-width: 1.0;"/><line style="stroke: #383838; stroke-width: 1.5;" x1="293.75" x2="293.75" y1="271.7206" y2="291.7206"/><polygon fill="#383838" points="289.75,281.7206,293.75,291.7206,297.75,281.7206,293.75,285.7206" style="stroke: #383838; stroke-width: 1.0;"/><line style="stroke: #383838; stroke-width: 1.5;" x1="293.75" x2="293.75" y1="344.4088" y2="364.4088"/><polygon fill="#383838" points="289.75,354.4088,293.75,364.4088,297.75,354.4088,293.75,358.4088" style="stroke: #383838; stroke-width: 1.0;"/><line style="stroke: #383838; stroke-width: 1.5;" x1="293.75" x2="293.75" y1="417.097" y2="437.097"/><polygon fill="#383838" points="289.75,427.097,293.75,437.097,297.75,427.097,293.75,431.097" style="stroke: #383838; stroke-width: 1.0;"/><line style="stroke: #383838; stroke-width: 1.5;" x1="293.75" x2="293.75" y1="473.4411" y2="493.4411"/><polygon fill="#383838" points="289.75,483.4411,293.75,493.4411,297.75,483.4411,293.75,487.4411" style="stroke: #383838; stroke-width: 1.0;"/><line style="stroke: #383838; stroke-width: 1.5;" x1="293.75" x2="293.75" y1="546.1294" y2="566.1294"/><polygon fill="#383838" points="289.75,556.1294,293.75,566.1294,297.75,556.1294,293.75,560.1294" style="stroke: #383838; stroke-width: 1.0;"/><line style="stroke: #383838; stroke-width: 1.5;" x1="293.75" x2="293.75" y1="602.4735" y2="622.4735"/><polygon fill="#383838" points="289.75,612.4735,293.75,622.4735,297.75,612.4735,293.75,616.4735" style="stroke: #383838; stroke-width: 1.0;"/><line style="stroke: #383838; stroke-width: 1.5;" x1="154.5" x2="154.5" y1="765.5058" y2="785.5058"/><polygon fill="#383838" points="150.5,775.5058,154.5,785.5058,158.5,775.5058,154.5,779.5058" style="stroke: #383838; stroke-width: 1.0;"/><line style="stroke: #383838; stroke-width: 1.5;" x1="154.5" x2="154.5" y1="821.8499" y2="841.8499"/><polygon fill="#383838" points="150.5,831.8499,154.5,841.8499,158.5,831.8499,154.5,835.8499" style="stroke: #383838; stroke-width: 1.0;"/><line style="stroke: #383838; stroke-width: 1.5;" x1="154.5" x2="154.5" y1="878.1941" y2="898.1941"/><polygon fill="#383838" points="150.5,888.1941,154.5,898.1941,158.5,888.1941,154.5,892.1941" style="stroke: #383838; stroke-width: 1.0;"/><line style="stroke: #383838; stroke-width: 1.5;" x1="246.25" x2="154.5" y1="690.8176" y2="690.8176"/><line style="stroke: #383838; stroke-width: 1.5;" x1="154.5" x2="154.5" y1="690.8176" y2="712.8176"/><polygon fill="#383838" points="150.5,702.8176,154.5,712.8176,158.5,702.8176,154.5,706.8176" style="stroke: #383838; stroke-width: 1.0;"/><line style="stroke: #383838; stroke-width: 1.5;" x1="341.25" x2="433" y1="690.8176" y2="690.8176"/><line style="stroke: #383838; stroke-width: 1.5;" x1="433" x2="433" y1="690.8176" y2="712.8176"/><polygon fill="#383838" points="429,702.8176,433,712.8176,437,702.8176,433,706.8176" style="stroke: #383838; stroke-width: 1.0;"/><line style="stroke: #383838; stroke-width: 1.5;" x1="154.5" x2="154.5" y1="934.5382" y2="952.5382"/><line style="stroke: #383838; stroke-width: 1.5;" x1="154.5" x2="281.75" y1="952.5382" y2="952.5382"/><polygon fill="#383838" points="271.75,948.5382,281.75,952.5382,271.75,956.5382,275.75,952.5382" style="stroke: #383838; stroke-width: 1.0;"/><line style="stroke: #383838; stroke-width: 1.5;" x1="433" x2="433" y1="765.5058" y2="952.5382"/><line style="stroke: #383838; stroke-width: 1.5;" x1="433" x2="305.75" y1="952.5382" y2="952.5382"/><polygon fill="#383838" points="315.75,948.5382,305.75,952.5382,315.75,956.5382,311.75,952.5382" style="stroke: #383838; stroke-width: 1.0;"/><line style="stroke: #383838; stroke-width: 1.5;" x1="293.75" x2="293.75" y1="658.8176" y2="678.8176"/><polygon fill="#383838" points="289.75,668.8176,293.75,678.8176,297.75,668.8176,293.75,672.8176" style="stroke: #383838; stroke-width: 1.0;"/><line style="stroke: #383838; stroke-width: 1.5;" x1="293.75" x2="293.75" y1="964.5382" y2="984.5382"/><polygon fill="#383838" points="289.75,974.5382,293.75,984.5382,297.75,974.5382,293.75,978.5382" style="stroke: #383838; stroke-width: 1.0;"/><line style="stroke: #383838; stroke-width: 1.5;" x1="293.75" x2="293.75" y1="1020.8823" y2="1040.8823"/><polygon fill="#383838" points="289.75,1030.8823,293.75,1040.8823,297.75,1030.8823,293.75,1034.8823" style="stroke: #383838; stroke-width: 1.0;"/><line style="stroke: #383838; stroke-width: 1.5;" x1="293.75" x2="293.75" y1="1077.2264" y2="1097.2264"/><polygon fill="#383838" points="289.75,1087.2264,293.75,1097.2264,297.75,1087.2264,293.75,1091.2264" style="stroke: #383838; stroke-width: 1.0;"/><line style="stroke: #383838; stroke-width: 1.5;" x1="293.75" x2="293.75" y1="1149.9146" y2="1169.9146"/><polygon fill="#383838" points="289.75,1159.9146,293.75,1169.9146,297.75,1159.9146,293.75,1163.9146" style="stroke: #383838; stroke-width: 1.0;"/><line style="stroke: #383838; stroke-width: 1.5;" x1="293.75" x2="293.75" y1="1206.2587" y2="1226.2587"/><polygon fill="#383838" points="289.75,1216.2587,293.75,1226.2587,297.75,1216.2587,293.75,1220.2587" style="stroke: #383838; stroke-width: 1.0;"/><line style="stroke: #383838; stroke-width: 1.5;" x1="293.75" x2="293.75" y1="1262.6029" y2="1282.6029"/><polygon fill="#383838" points="289.75,1272.6029,293.75,1282.6029,297.75,1272.6029,293.75,1276.6029" style="stroke: #383838; stroke-width: 1.0;"/><line style="stroke: #383838; stroke-width: 1.5;" x1="293.75" x2="293.75" y1="1318.947" y2="1338.947"/><polygon fill="#383838" points="289.75,1328.947,293.75,1338.947,297.75,1328.947,293.75,1332.947" style="stroke: #383838; stroke-width: 1.0;"/><line style="stroke: #383838; stroke-width: 1.5;" x1="293.75" x2="293.75" y1="1375.2911" y2="1395.2911"/><polygon fill="#383838" points="289.75,1385.2911,293.75,1395.2911,297.75,1385.2911,293.75,1389.2911" style="stroke: #383838; stroke-width: 1.0;"/><line style="stroke: #383838; stroke-width: 1.5;" x1="293.75" x2="293.75" y1="1431.6352" y2="1451.6352"/><polygon fill="#383838" points="289.75,1441.6352,293.75,1451.6352,297.75,1441.6352,293.75,1445.6352" style="stroke: #383838; stroke-width: 1.0;"/><line style="stroke: #383838; stroke-width: 1.5;" x1="293.75" x2="293.75" y1="1487.9793" y2="1507.9793"/><polygon fill="#383838" points="289.75,1497.9793,293.75,1507.9793,297.75,1497.9793,293.75,1501.9793" style="stroke: #383838; stroke-width: 1.0;"/><line style="stroke: #383838; stroke-width: 1.5;" x1="293.75" x2="293.75" y1="1544.3234" y2="1564.3234"/><polygon fill="#383838" points="289.75,1554.3234,293.75,1564.3234,297.75,1554.3234,293.75,1558.3234" style="stroke: #383838; stroke-width: 1.0;"/><line style="stroke: #383838; stroke-width: 1.5;" x1="293.75" x2="293.75" y1="1617.0117" y2="1637.0117"/><polygon fill="#383838" points="289.75,1627.0117,293.75,1637.0117,297.75,1627.0117,293.75,1631.0117" style="stroke: #383838; stroke-width: 1.0;"/><!--MD5=[ad7f6d83d805da574467ea6c6f4c6c84]
@startuml
skinparam shadowing false
skinparam monochrome true
skinparam defaultTextAlignment center

start
:读取 DAG 配置;
:ClassLoader 动态加载组件类;
:创建组件对象\n如 VelodyneConvertComponent;
:调用 Component<M0>::Initialize(config);
:创建 node_\nnode_.reset(new Node(config.name()));
:LoadConfigFiles(config)\n加载 config_file_path / flag_file_path;
:调用业务 Init();
:业务组件准备资源\n读配置 / 建 writer / 建对象池;
:从 config.readers(0) 组装 ReaderConfig;
:构造框架回调 func;
if (reality mode?) then (yes)
  :CreateReader<M0>(reader_cfg)\n创建裸 reader;
  :创建 DataVisitor;
  :CreateRoutineFactory<M0>(func, dv);
  :scheduler->CreateTask(factory, node_->Name());
else (no)
  :CreateReader<M0>(reader_cfg, func)\n直接绑定回调;
endif
:reader 放入 readers_;
:channel 来消息;
:Reader 收到消息\n如 /apollo/sensor/lidar16/Scan;
:框架回调 func 被触发;
:调用 Process(msg);
:调用业务 Proc(msg);
:VelodyneConvertComponent::Proc(scan_msg);
:ConvertPacketsToPointcloud(scan_msg, point_cloud);
:VelodyneParser::GeneratePointcloud(...);
:writer_->Write(point_cloud);
:发布到输出 channel\n如 /apollo/sensor/lidar16/PointCloud2;
stop
@enduml

PlantUML version 1.2020.02(Sun Mar 01 18:22:07 CST 2020)
(GPL source distribution)
Java Runtime: OpenJDK Runtime Environment
JVM: OpenJDK 64-Bit Server VM
Java Version: 21.0.11+10-1-24.04.2-Ubuntu
Operating System: Linux
Default Encoding: UTF-8
Language: en
Country: US
--></g></svg>