<?xml version="1.0" encoding="UTF-8" standalone="no"?><svg xmlns="http://www.w3.org/2000/svg" xmlns:xlink="http://www.w3.org/1999/xlink" contentScriptType="application/ecmascript" contentStyleType="text/css" height="988px" preserveAspectRatio="none" style="width:1291px;height:988px;" version="1.1" viewBox="0 0 1291 988" width="1291px" zoomAndPan="magnify"><defs/><g><!--MD5=[d55bceb813599f94a87d04860f48bba0]
cluster Component Layer\n业务执行层--><polygon fill="#FFFFFF" points="420,24,550,24,557,68.1358,737,68.1358,737,254,420,254,420,24" style="stroke: #000000; stroke-width: 1.5;"/><line style="stroke: #000000; stroke-width: 1.5;" x1="420" x2="557" y1="68.1358" y2="68.1358"/><text fill="#000000" font-family="sans-serif" font-size="14" font-weight="bold" lengthAdjust="spacingAndGlyphs" textLength="124" x="424" y="40.9659">Component Layer</text><text fill="#000000" font-family="sans-serif" font-size="14" font-weight="bold" lengthAdjust="spacingAndGlyphs" textLength="70" x="451" y="60.0339">业务执行层</text><!--MD5=[5490be25a4891e48d824576e2240fadd]
cluster Node Layer\n通信门面层--><polygon fill="#FFFFFF" points="22,305,107,305,114,349.1358,450,349.1358,450,560.5,22,560.5,22,305" style="stroke: #000000; stroke-width: 1.5;"/><line style="stroke: #000000; stroke-width: 1.5;" x1="22" x2="114" y1="349.1358" y2="349.1358"/><text fill="#000000" font-family="sans-serif" font-size="14" font-weight="bold" lengthAdjust="spacingAndGlyphs" textLength="79" x="26" y="321.9659">Node Layer</text><text fill="#000000" font-family="sans-serif" font-size="14" font-weight="bold" lengthAdjust="spacingAndGlyphs" textLength="70" x="30.5" y="341.0339">通信门面层</text><!--MD5=[b434b41b658147682f3041a6225f8272]
cluster Transport Layer\n消息传输层--><polygon fill="#FFFFFF" points="116,617,232,617,239,661.1358,436,661.1358,436,976,116,976,116,617" style="stroke: #000000; stroke-width: 1.5;"/><line style="stroke: #000000; stroke-width: 1.5;" x1="116" x2="239" y1="661.1358" y2="661.1358"/><text fill="#000000" font-family="sans-serif" font-size="14" font-weight="bold" lengthAdjust="spacingAndGlyphs" textLength="110" x="120" y="633.9659">Transport Layer</text><text fill="#000000" font-family="sans-serif" font-size="14" font-weight="bold" lengthAdjust="spacingAndGlyphs" textLength="70" x="140" y="653.0339">消息传输层</text><!--MD5=[538a1ec50ac3b033207212234a10f110]
cluster Scheduler Layer\n执行调度层--><polygon fill="#FFFFFF" points="669,305,785,305,792,349.1358,1043,349.1358,1043,738,669,738,669,305" style="stroke: #000000; stroke-width: 1.5;"/><line style="stroke: #000000; stroke-width: 1.5;" x1="669" x2="792" y1="349.1358" y2="349.1358"/><text fill="#000000" font-family="sans-serif" font-size="14" font-weight="bold" lengthAdjust="spacingAndGlyphs" textLength="110" x="673" y="321.9659">Scheduler Layer</text><text fill="#000000" font-family="sans-serif" font-size="14" font-weight="bold" lengthAdjust="spacingAndGlyphs" textLength="70" x="693" y="341.0339">执行调度层</text><!--MD5=[655c6913e82e36e9be1fc348df88602d]
class ComponentBase--><rect fill="#F8F8F8" height="48" id="ComponentBase" style="stroke: #383838; stroke-width: 1.5;" width="125" x="516.5" y="81"/><ellipse cx="531.5" cy="97" fill="#C2C2C2" rx="11" ry="11" style="stroke: #383838; stroke-width: 1.0;"/><path d="M534.4688,102.6406 Q533.8906,102.9375 533.25,103.0781 Q532.6094,103.2344 531.9063,103.2344 Q529.4063,103.2344 528.0781,101.5938 Q526.7656,99.9375 526.7656,96.8125 Q526.7656,93.6875 528.0781,92.0313 Q529.4063,90.375 531.9063,90.375 Q532.6094,90.375 533.25,90.5313 Q533.9063,90.6875 534.4688,90.9844 L534.4688,93.7031 Q533.8438,93.125 533.25,92.8594 Q532.6563,92.5781 532.0313,92.5781 Q530.6875,92.5781 530,93.6563 Q529.3125,94.7188 529.3125,96.8125 Q529.3125,98.9063 530,99.9844 Q530.6875,101.0469 532.0313,101.0469 Q532.6563,101.0469 533.25,100.7813 Q533.8438,100.5 534.4688,99.9219 L534.4688,102.6406 Z "/><text fill="#000000" font-family="sans-serif" font-size="12" lengthAdjust="spacingAndGlyphs" textLength="93" x="545.5" y="101.656">ComponentBase</text><line style="stroke: #383838; stroke-width: 1.5;" x1="517.5" x2="640.5" y1="113" y2="113"/><line style="stroke: #383838; stroke-width: 1.5;" x1="517.5" x2="640.5" y1="121" y2="121"/><!--MD5=[809731b83369236e991aef29f60ccbdb]
class ComponentMsg--><rect fill="#F8F8F8" height="48" id="ComponentMsg" style="stroke: #383838; stroke-width: 1.5;" width="120" x="601" y="190"/><ellipse cx="616" cy="206" fill="#C2C2C2" rx="11" ry="11" style="stroke: #383838; stroke-width: 1.0;"/><path d="M618.9688,211.6406 Q618.3906,211.9375 617.75,212.0781 Q617.1094,212.2344 616.4063,212.2344 Q613.9063,212.2344 612.5781,210.5938 Q611.2656,208.9375 611.2656,205.8125 Q611.2656,202.6875 612.5781,201.0313 Q613.9063,199.375 616.4063,199.375 Q617.1094,199.375 617.75,199.5313 Q618.4063,199.6875 618.9688,199.9844 L618.9688,202.7031 Q618.3438,202.125 617.75,201.8594 Q617.1563,201.5781 616.5313,201.5781 Q615.1875,201.5781 614.5,202.6563 Q613.8125,203.7188 613.8125,205.8125 Q613.8125,207.9063 614.5,208.9844 Q615.1875,210.0469 616.5313,210.0469 Q617.1563,210.0469 617.75,209.7813 Q618.3438,209.5 618.9688,208.9219 L618.9688,211.6406 Z "/><text fill="#000000" font-family="sans-serif" font-size="12" lengthAdjust="spacingAndGlyphs" textLength="65" x="630" y="210.656">Component</text><rect fill="#FFFFFF" height="18.3441" style="stroke: #000000; stroke-width: 1.0; stroke-dasharray: 2.0,2.0;" width="21" x="703" y="187"/><text fill="#000000" font-family="sans-serif" font-size="12" font-style="italic" lengthAdjust="spacingAndGlyphs" textLength="19" x="704" y="200.8281">M...</text><line style="stroke: #383838; stroke-width: 1.5;" x1="602" x2="720" y1="222" y2="222"/><line style="stroke: #383838; stroke-width: 1.5;" x1="602" x2="720" y1="230" y2="230"/><!--MD5=[6b020e4c669016a49e4348c932382eee]
class TimerComponent--><rect fill="#F8F8F8" height="48" id="TimerComponent" style="stroke: #383838; stroke-width: 1.5;" width="130" x="436" y="190"/><ellipse cx="451" cy="206" fill="#C2C2C2" rx="11" ry="11" style="stroke: #383838; stroke-width: 1.0;"/><path d="M453.9688,211.6406 Q453.3906,211.9375 452.75,212.0781 Q452.1094,212.2344 451.4063,212.2344 Q448.9063,212.2344 447.5781,210.5938 Q446.2656,208.9375 446.2656,205.8125 Q446.2656,202.6875 447.5781,201.0313 Q448.9063,199.375 451.4063,199.375 Q452.1094,199.375 452.75,199.5313 Q453.4063,199.6875 453.9688,199.9844 L453.9688,202.7031 Q453.3438,202.125 452.75,201.8594 Q452.1563,201.5781 451.5313,201.5781 Q450.1875,201.5781 449.5,202.6563 Q448.8125,203.7188 448.8125,205.8125 Q448.8125,207.9063 449.5,208.9844 Q450.1875,210.0469 451.5313,210.0469 Q452.1563,210.0469 452.75,209.7813 Q453.3438,209.5 453.9688,208.9219 L453.9688,211.6406 Z "/><text fill="#000000" font-family="sans-serif" font-size="12" lengthAdjust="spacingAndGlyphs" textLength="98" x="465" y="210.656">TimerComponent</text><line style="stroke: #383838; stroke-width: 1.5;" x1="437" x2="565" y1="222" y2="222"/><line style="stroke: #383838; stroke-width: 1.5;" x1="437" x2="565" y1="230" y2="230"/><!--MD5=[3fee75583bb7a64f68d843a3c9534ab3]
class Node--><rect fill="#F8F8F8" height="48" id="Node" style="stroke: #383838; stroke-width: 1.5;" width="62" x="245" y="362"/><ellipse cx="260" cy="378" fill="#C2C2C2" rx="11" ry="11" style="stroke: #383838; stroke-width: 1.0;"/><path d="M262.9688,383.6406 Q262.3906,383.9375 261.75,384.0781 Q261.1094,384.2344 260.4063,384.2344 Q257.9063,384.2344 256.5781,382.5938 Q255.2656,380.9375 255.2656,377.8125 Q255.2656,374.6875 256.5781,373.0313 Q257.9063,371.375 260.4063,371.375 Q261.1094,371.375 261.75,371.5313 Q262.4063,371.6875 262.9688,371.9844 L262.9688,374.7031 Q262.3438,374.125 261.75,373.8594 Q261.1563,373.5781 260.5313,373.5781 Q259.1875,373.5781 258.5,374.6563 Q257.8125,375.7188 257.8125,377.8125 Q257.8125,379.9063 258.5,380.9844 Q259.1875,382.0469 260.5313,382.0469 Q261.1563,382.0469 261.75,381.7813 Q262.3438,381.5 262.9688,380.9219 L262.9688,383.6406 Z "/><text fill="#000000" font-family="sans-serif" font-size="12" lengthAdjust="spacingAndGlyphs" textLength="30" x="274" y="382.656">Node</text><line style="stroke: #383838; stroke-width: 1.5;" x1="246" x2="306" y1="394" y2="394"/><line style="stroke: #383838; stroke-width: 1.5;" x1="246" x2="306" y1="402" y2="402"/><!--MD5=[63d63c3f89ca83c5dc7817a091b9f646]
class NodeChannelImpl--><rect fill="#F8F8F8" height="48" id="NodeChannelImpl" style="stroke: #383838; stroke-width: 1.5;" width="133" x="155.5" y="496.5"/><ellipse cx="170.5" cy="512.5" fill="#C2C2C2" rx="11" ry="11" style="stroke: #383838; stroke-width: 1.0;"/><path d="M173.4688,518.1406 Q172.8906,518.4375 172.25,518.5781 Q171.6094,518.7344 170.9063,518.7344 Q168.4063,518.7344 167.0781,517.0938 Q165.7656,515.4375 165.7656,512.3125 Q165.7656,509.1875 167.0781,507.5313 Q168.4063,505.875 170.9063,505.875 Q171.6094,505.875 172.25,506.0313 Q172.9063,506.1875 173.4688,506.4844 L173.4688,509.2031 Q172.8438,508.625 172.25,508.3594 Q171.6563,508.0781 171.0313,508.0781 Q169.6875,508.0781 169,509.1563 Q168.3125,510.2188 168.3125,512.3125 Q168.3125,514.4063 169,515.4844 Q169.6875,516.5469 171.0313,516.5469 Q171.6563,516.5469 172.25,516.2813 Q172.8438,516 173.4688,515.4219 L173.4688,518.1406 Z "/><text fill="#000000" font-family="sans-serif" font-size="12" lengthAdjust="spacingAndGlyphs" textLength="101" x="184.5" y="517.156">NodeChannelImpl</text><line style="stroke: #383838; stroke-width: 1.5;" x1="156.5" x2="287.5" y1="528.5" y2="528.5"/><line style="stroke: #383838; stroke-width: 1.5;" x1="156.5" x2="287.5" y1="536.5" y2="536.5"/><!--MD5=[c8f1d8021b0ecc3917fb01eae12d9950]
class ReaderT--><rect fill="#F8F8F8" height="48" id="ReaderT" style="stroke: #383838; stroke-width: 1.5;" width="82" x="38" y="496.5"/><ellipse cx="53" cy="512.5" fill="#C2C2C2" rx="11" ry="11" style="stroke: #383838; stroke-width: 1.0;"/><path d="M55.9688,518.1406 Q55.3906,518.4375 54.75,518.5781 Q54.1094,518.7344 53.4063,518.7344 Q50.9063,518.7344 49.5781,517.0938 Q48.2656,515.4375 48.2656,512.3125 Q48.2656,509.1875 49.5781,507.5313 Q50.9063,505.875 53.4063,505.875 Q54.1094,505.875 54.75,506.0313 Q55.4063,506.1875 55.9688,506.4844 L55.9688,509.2031 Q55.3438,508.625 54.75,508.3594 Q54.1563,508.0781 53.5313,508.0781 Q52.1875,508.0781 51.5,509.1563 Q50.8125,510.2188 50.8125,512.3125 Q50.8125,514.4063 51.5,515.4844 Q52.1875,516.5469 53.5313,516.5469 Q54.1563,516.5469 54.75,516.2813 Q55.3438,516 55.9688,515.4219 L55.9688,518.1406 Z "/><text fill="#000000" font-family="sans-serif" font-size="12" lengthAdjust="spacingAndGlyphs" textLength="40" x="67" y="517.156">Reader</text><rect fill="#FFFFFF" height="18.3441" style="stroke: #000000; stroke-width: 1.0; stroke-dasharray: 2.0,2.0;" width="8" x="115" y="493.5"/><text fill="#000000" font-family="sans-serif" font-size="12" font-style="italic" lengthAdjust="spacingAndGlyphs" textLength="6" x="116" y="507.3281">T</text><line style="stroke: #383838; stroke-width: 1.5;" x1="39" x2="119" y1="528.5" y2="528.5"/><line style="stroke: #383838; stroke-width: 1.5;" x1="39" x2="119" y1="536.5" y2="536.5"/><!--MD5=[4684ad444e906d9b54fb9200c596d746]
class WriterT--><rect fill="#F8F8F8" height="48" id="WriterT" style="stroke: #383838; stroke-width: 1.5;" width="77" x="323.5" y="496.5"/><ellipse cx="338.5" cy="512.5" fill="#C2C2C2" rx="11" ry="11" style="stroke: #383838; stroke-width: 1.0;"/><path d="M341.4688,518.1406 Q340.8906,518.4375 340.25,518.5781 Q339.6094,518.7344 338.9063,518.7344 Q336.4063,518.7344 335.0781,517.0938 Q333.7656,515.4375 333.7656,512.3125 Q333.7656,509.1875 335.0781,507.5313 Q336.4063,505.875 338.9063,505.875 Q339.6094,505.875 340.25,506.0313 Q340.9063,506.1875 341.4688,506.4844 L341.4688,509.2031 Q340.8438,508.625 340.25,508.3594 Q339.6563,508.0781 339.0313,508.0781 Q337.6875,508.0781 337,509.1563 Q336.3125,510.2188 336.3125,512.3125 Q336.3125,514.4063 337,515.4844 Q337.6875,516.5469 339.0313,516.5469 Q339.6563,516.5469 340.25,516.2813 Q340.8438,516 341.4688,515.4219 L341.4688,518.1406 Z "/><text fill="#000000" font-family="sans-serif" font-size="12" lengthAdjust="spacingAndGlyphs" textLength="35" x="352.5" y="517.156">Writer</text><rect fill="#FFFFFF" height="18.3441" style="stroke: #000000; stroke-width: 1.0; stroke-dasharray: 2.0,2.0;" width="8" x="395.5" y="493.5"/><text fill="#000000" font-family="sans-serif" font-size="12" font-style="italic" lengthAdjust="spacingAndGlyphs" textLength="6" x="396.5" y="507.3281">T</text><line style="stroke: #383838; stroke-width: 1.5;" x1="324.5" x2="399.5" y1="528.5" y2="528.5"/><line style="stroke: #383838; stroke-width: 1.5;" x1="324.5" x2="399.5" y1="536.5" y2="536.5"/><!--MD5=[006c500fe2ef6e7d71d5e7cef485b454]
class ReceiverT--><rect fill="#F8F8F8" height="48" id="ReceiverT" style="stroke: #383838; stroke-width: 1.5;" width="90" x="136" y="674"/><ellipse cx="151" cy="690" fill="#C2C2C2" rx="11" ry="11" style="stroke: #383838; stroke-width: 1.0;"/><path d="M153.9688,695.6406 Q153.3906,695.9375 152.75,696.0781 Q152.1094,696.2344 151.4063,696.2344 Q148.9063,696.2344 147.5781,694.5938 Q146.2656,692.9375 146.2656,689.8125 Q146.2656,686.6875 147.5781,685.0313 Q148.9063,683.375 151.4063,683.375 Q152.1094,683.375 152.75,683.5313 Q153.4063,683.6875 153.9688,683.9844 L153.9688,686.7031 Q153.3438,686.125 152.75,685.8594 Q152.1563,685.5781 151.5313,685.5781 Q150.1875,685.5781 149.5,686.6563 Q148.8125,687.7188 148.8125,689.8125 Q148.8125,691.9063 149.5,692.9844 Q150.1875,694.0469 151.5313,694.0469 Q152.1563,694.0469 152.75,693.7813 Q153.3438,693.5 153.9688,692.9219 L153.9688,695.6406 Z "/><text fill="#000000" font-family="sans-serif" font-size="12" lengthAdjust="spacingAndGlyphs" textLength="48" x="165" y="694.656">Receiver</text><rect fill="#FFFFFF" height="18.3441" style="stroke: #000000; stroke-width: 1.0; stroke-dasharray: 2.0,2.0;" width="8" x="221" y="671"/><text fill="#000000" font-family="sans-serif" font-size="12" font-style="italic" lengthAdjust="spacingAndGlyphs" textLength="6" x="222" y="684.8281">T</text><line style="stroke: #383838; stroke-width: 1.5;" x1="137" x2="225" y1="706" y2="706"/><line style="stroke: #383838; stroke-width: 1.5;" x1="137" x2="225" y1="714" y2="714"/><!--MD5=[a84328ef76f7e708fc4e09e83756fcb6]
class TransmitterT--><rect fill="#F8F8F8" height="48" id="TransmitterT" style="stroke: #383838; stroke-width: 1.5;" width="108" x="308" y="674"/><ellipse cx="323" cy="690" fill="#C2C2C2" rx="11" ry="11" style="stroke: #383838; stroke-width: 1.0;"/><path d="M325.9688,695.6406 Q325.3906,695.9375 324.75,696.0781 Q324.1094,696.2344 323.4063,696.2344 Q320.9063,696.2344 319.5781,694.5938 Q318.2656,692.9375 318.2656,689.8125 Q318.2656,686.6875 319.5781,685.0313 Q320.9063,683.375 323.4063,683.375 Q324.1094,683.375 324.75,683.5313 Q325.4063,683.6875 325.9688,683.9844 L325.9688,686.7031 Q325.3438,686.125 324.75,685.8594 Q324.1563,685.5781 323.5313,685.5781 Q322.1875,685.5781 321.5,686.6563 Q320.8125,687.7188 320.8125,689.8125 Q320.8125,691.9063 321.5,692.9844 Q322.1875,694.0469 323.5313,694.0469 Q324.1563,694.0469 324.75,693.7813 Q325.3438,693.5 325.9688,692.9219 L325.9688,695.6406 Z "/><text fill="#000000" font-family="sans-serif" font-size="12" lengthAdjust="spacingAndGlyphs" textLength="66" x="337" y="694.656">Transmitter</text><rect fill="#FFFFFF" height="18.3441" style="stroke: #000000; stroke-width: 1.0; stroke-dasharray: 2.0,2.0;" width="8" x="411" y="671"/><text fill="#000000" font-family="sans-serif" font-size="12" font-style="italic" lengthAdjust="spacingAndGlyphs" textLength="6" x="412" y="684.8281">T</text><line style="stroke: #383838; stroke-width: 1.5;" x1="309" x2="415" y1="706" y2="706"/><line style="stroke: #383838; stroke-width: 1.5;" x1="309" x2="415" y1="714" y2="714"/><!--MD5=[ea7d882ff1f2017d1e09f7ed16d024f8]
class HybridReceiver--><rect fill="#F8F8F8" height="48" id="HybridReceiver" style="stroke: #383838; stroke-width: 1.5;" width="117" x="132.5" y="785"/><ellipse cx="147.5" cy="801" fill="#C2C2C2" rx="11" ry="11" style="stroke: #383838; stroke-width: 1.0;"/><path d="M150.4688,806.6406 Q149.8906,806.9375 149.25,807.0781 Q148.6094,807.2344 147.9063,807.2344 Q145.4063,807.2344 144.0781,805.5938 Q142.7656,803.9375 142.7656,800.8125 Q142.7656,797.6875 144.0781,796.0313 Q145.4063,794.375 147.9063,794.375 Q148.6094,794.375 149.25,794.5313 Q149.9063,794.6875 150.4688,794.9844 L150.4688,797.7031 Q149.8438,797.125 149.25,796.8594 Q148.6563,796.5781 148.0313,796.5781 Q146.6875,796.5781 146,797.6563 Q145.3125,798.7188 145.3125,800.8125 Q145.3125,802.9063 146,803.9844 Q146.6875,805.0469 148.0313,805.0469 Q148.6563,805.0469 149.25,804.7813 Q149.8438,804.5 150.4688,803.9219 L150.4688,806.6406 Z "/><text fill="#000000" font-family="sans-serif" font-size="12" lengthAdjust="spacingAndGlyphs" textLength="85" x="161.5" y="805.656">HybridReceiver</text><line style="stroke: #383838; stroke-width: 1.5;" x1="133.5" x2="248.5" y1="817" y2="817"/><line style="stroke: #383838; stroke-width: 1.5;" x1="133.5" x2="248.5" y1="825" y2="825"/><!--MD5=[386b3311d9c7333fb9d46f2cea711c5f]
class HybridTransmitter--><rect fill="#F8F8F8" height="48" id="HybridTransmitter" style="stroke: #383838; stroke-width: 1.5;" width="135" x="284.5" y="785"/><ellipse cx="299.5" cy="801" fill="#C2C2C2" rx="11" ry="11" style="stroke: #383838; stroke-width: 1.0;"/><path d="M302.4688,806.6406 Q301.8906,806.9375 301.25,807.0781 Q300.6094,807.2344 299.9063,807.2344 Q297.4063,807.2344 296.0781,805.5938 Q294.7656,803.9375 294.7656,800.8125 Q294.7656,797.6875 296.0781,796.0313 Q297.4063,794.375 299.9063,794.375 Q300.6094,794.375 301.25,794.5313 Q301.9063,794.6875 302.4688,794.9844 L302.4688,797.7031 Q301.8438,797.125 301.25,796.8594 Q300.6563,796.5781 300.0313,796.5781 Q298.6875,796.5781 298,797.6563 Q297.3125,798.7188 297.3125,800.8125 Q297.3125,802.9063 298,803.9844 Q298.6875,805.0469 300.0313,805.0469 Q300.6563,805.0469 301.25,804.7813 Q301.8438,804.5 302.4688,803.9219 L302.4688,806.6406 Z "/><text fill="#000000" font-family="sans-serif" font-size="12" lengthAdjust="spacingAndGlyphs" textLength="103" x="313.5" y="805.656">HybridTransmitter</text><line style="stroke: #383838; stroke-width: 1.5;" x1="285.5" x2="418.5" y1="817" y2="817"/><line style="stroke: #383838; stroke-width: 1.5;" x1="285.5" x2="418.5" y1="825" y2="825"/><!--MD5=[0c7624888451d2039aaef18036130ed9]
class Dispatcher--><rect fill="#F8F8F8" height="48" id="Dispatcher" style="stroke: #383838; stroke-width: 1.5;" width="93" x="201.5" y="912"/><ellipse cx="216.5" cy="928" fill="#C2C2C2" rx="11" ry="11" style="stroke: #383838; stroke-width: 1.0;"/><path d="M219.4688,933.6406 Q218.8906,933.9375 218.25,934.0781 Q217.6094,934.2344 216.9063,934.2344 Q214.4063,934.2344 213.0781,932.5938 Q211.7656,930.9375 211.7656,927.8125 Q211.7656,924.6875 213.0781,923.0313 Q214.4063,921.375 216.9063,921.375 Q217.6094,921.375 218.25,921.5313 Q218.9063,921.6875 219.4688,921.9844 L219.4688,924.7031 Q218.8438,924.125 218.25,923.8594 Q217.6563,923.5781 217.0313,923.5781 Q215.6875,923.5781 215,924.6563 Q214.3125,925.7188 214.3125,927.8125 Q214.3125,929.9063 215,930.9844 Q215.6875,932.0469 217.0313,932.0469 Q217.6563,932.0469 218.25,931.7813 Q218.8438,931.5 219.4688,930.9219 L219.4688,933.6406 Z "/><text fill="#000000" font-family="sans-serif" font-size="12" lengthAdjust="spacingAndGlyphs" textLength="61" x="230.5" y="932.656">Dispatcher</text><line style="stroke: #383838; stroke-width: 1.5;" x1="202.5" x2="293.5" y1="944" y2="944"/><line style="stroke: #383838; stroke-width: 1.5;" x1="202.5" x2="293.5" y1="952" y2="952"/><!--MD5=[8523c9eb2e1b5151dfc9c2a797373c5f]
class Scheduler--><rect fill="#F8F8F8" height="48" id="Scheduler" style="stroke: #383838; stroke-width: 1.5;" width="88" x="732" y="496.5"/><ellipse cx="747" cy="512.5" fill="#C2C2C2" rx="11" ry="11" style="stroke: #383838; stroke-width: 1.0;"/><path d="M749.9688,518.1406 Q749.3906,518.4375 748.75,518.5781 Q748.1094,518.7344 747.4063,518.7344 Q744.9063,518.7344 743.5781,517.0938 Q742.2656,515.4375 742.2656,512.3125 Q742.2656,509.1875 743.5781,507.5313 Q744.9063,505.875 747.4063,505.875 Q748.1094,505.875 748.75,506.0313 Q749.4063,506.1875 749.9688,506.4844 L749.9688,509.2031 Q749.3438,508.625 748.75,508.3594 Q748.1563,508.0781 747.5313,508.0781 Q746.1875,508.0781 745.5,509.1563 Q744.8125,510.2188 744.8125,512.3125 Q744.8125,514.4063 745.5,515.4844 Q746.1875,516.5469 747.5313,516.5469 Q748.1563,516.5469 748.75,516.2813 Q749.3438,516 749.9688,515.4219 L749.9688,518.1406 Z "/><text fill="#000000" font-family="sans-serif" font-size="12" lengthAdjust="spacingAndGlyphs" textLength="56" x="761" y="517.156">Scheduler</text><line style="stroke: #383838; stroke-width: 1.5;" x1="733" x2="819" y1="528.5" y2="528.5"/><line style="stroke: #383838; stroke-width: 1.5;" x1="733" x2="819" y1="536.5" y2="536.5"/><!--MD5=[df152c2476dc0702efc46fc22338464c]
class Processor--><rect fill="#F8F8F8" height="48" id="Processor" style="stroke: #383838; stroke-width: 1.5;" width="88" x="685" y="674"/><ellipse cx="700" cy="690" fill="#C2C2C2" rx="11" ry="11" style="stroke: #383838; stroke-width: 1.0;"/><path d="M702.9688,695.6406 Q702.3906,695.9375 701.75,696.0781 Q701.1094,696.2344 700.4063,696.2344 Q697.9063,696.2344 696.5781,694.5938 Q695.2656,692.9375 695.2656,689.8125 Q695.2656,686.6875 696.5781,685.0313 Q697.9063,683.375 700.4063,683.375 Q701.1094,683.375 701.75,683.5313 Q702.4063,683.6875 702.9688,683.9844 L702.9688,686.7031 Q702.3438,686.125 701.75,685.8594 Q701.1563,685.5781 700.5313,685.5781 Q699.1875,685.5781 698.5,686.6563 Q697.8125,687.7188 697.8125,689.8125 Q697.8125,691.9063 698.5,692.9844 Q699.1875,694.0469 700.5313,694.0469 Q701.1563,694.0469 701.75,693.7813 Q702.3438,693.5 702.9688,692.9219 L702.9688,695.6406 Z "/><text fill="#000000" font-family="sans-serif" font-size="12" lengthAdjust="spacingAndGlyphs" textLength="56" x="714" y="694.656">Processor</text><line style="stroke: #383838; stroke-width: 1.5;" x1="686" x2="772" y1="706" y2="706"/><line style="stroke: #383838; stroke-width: 1.5;" x1="686" x2="772" y1="714" y2="714"/><!--MD5=[d94958023b5db9496318df56cc64366b]
class CRoutine--><rect fill="#F8F8F8" height="48" id="CRoutine" style="stroke: #383838; stroke-width: 1.5;" width="82" x="863" y="674"/><ellipse cx="878" cy="690" fill="#C2C2C2" rx="11" ry="11" style="stroke: #383838; stroke-width: 1.0;"/><path d="M880.9688,695.6406 Q880.3906,695.9375 879.75,696.0781 Q879.1094,696.2344 878.4063,696.2344 Q875.9063,696.2344 874.5781,694.5938 Q873.2656,692.9375 873.2656,689.8125 Q873.2656,686.6875 874.5781,685.0313 Q875.9063,683.375 878.4063,683.375 Q879.1094,683.375 879.75,683.5313 Q880.4063,683.6875 880.9688,683.9844 L880.9688,686.7031 Q880.3438,686.125 879.75,685.8594 Q879.1563,685.5781 878.5313,685.5781 Q877.1875,685.5781 876.5,686.6563 Q875.8125,687.7188 875.8125,689.8125 Q875.8125,691.9063 876.5,692.9844 Q877.1875,694.0469 878.5313,694.0469 Q879.1563,694.0469 879.75,693.7813 Q880.3438,693.5 880.9688,692.9219 L880.9688,695.6406 Z "/><text fill="#000000" font-family="sans-serif" font-size="12" lengthAdjust="spacingAndGlyphs" textLength="50" x="892" y="694.656">CRoutine</text><line style="stroke: #383838; stroke-width: 1.5;" x1="864" x2="944" y1="706" y2="706"/><line style="stroke: #383838; stroke-width: 1.5;" x1="864" x2="944" y1="714" y2="714"/><!--MD5=[c0b2c6aacfe2fd770e08ac89a5723fbf]
class RoutineFactory--><rect fill="#F8F8F8" height="48" id="RoutineFactory" style="stroke: #383838; stroke-width: 1.5;" width="115" x="878.5" y="496.5"/><ellipse cx="893.5" cy="512.5" fill="#C2C2C2" rx="11" ry="11" style="stroke: #383838; stroke-width: 1.0;"/><path d="M896.4688,518.1406 Q895.8906,518.4375 895.25,518.5781 Q894.6094,518.7344 893.9063,518.7344 Q891.4063,518.7344 890.0781,517.0938 Q888.7656,515.4375 888.7656,512.3125 Q888.7656,509.1875 890.0781,507.5313 Q891.4063,505.875 893.9063,505.875 Q894.6094,505.875 895.25,506.0313 Q895.9063,506.1875 896.4688,506.4844 L896.4688,509.2031 Q895.8438,508.625 895.25,508.3594 Q894.6563,508.0781 894.0313,508.0781 Q892.6875,508.0781 892,509.1563 Q891.3125,510.2188 891.3125,512.3125 Q891.3125,514.4063 892,515.4844 Q892.6875,516.5469 894.0313,516.5469 Q894.6563,516.5469 895.25,516.2813 Q895.8438,516 896.4688,515.4219 L896.4688,518.1406 Z "/><text fill="#000000" font-family="sans-serif" font-size="12" lengthAdjust="spacingAndGlyphs" textLength="83" x="907.5" y="517.156">RoutineFactory</text><line style="stroke: #383838; stroke-width: 1.5;" x1="879.5" x2="992.5" y1="528.5" y2="528.5"/><line style="stroke: #383838; stroke-width: 1.5;" x1="879.5" x2="992.5" y1="536.5" y2="536.5"/><!--MD5=[ba5b05ab2425514e04a12e24c8f1a695]
class DataVisitor--><rect fill="#F8F8F8" height="48" id="DataVisitor" style="stroke: #383838; stroke-width: 1.5;" width="94" x="900" y="362"/><ellipse cx="915" cy="378" fill="#C2C2C2" rx="11" ry="11" style="stroke: #383838; stroke-width: 1.0;"/><path d="M917.9688,383.6406 Q917.3906,383.9375 916.75,384.0781 Q916.1094,384.2344 915.4063,384.2344 Q912.9063,384.2344 911.5781,382.5938 Q910.2656,380.9375 910.2656,377.8125 Q910.2656,374.6875 911.5781,373.0313 Q912.9063,371.375 915.4063,371.375 Q916.1094,371.375 916.75,371.5313 Q917.4063,371.6875 917.9688,371.9844 L917.9688,374.7031 Q917.3438,374.125 916.75,373.8594 Q916.1563,373.5781 915.5313,373.5781 Q914.1875,373.5781 913.5,374.6563 Q912.8125,375.7188 912.8125,377.8125 Q912.8125,379.9063 913.5,380.9844 Q914.1875,382.0469 915.5313,382.0469 Q916.1563,382.0469 916.75,381.7813 Q917.3438,381.5 917.9688,380.9219 L917.9688,383.6406 Z "/><text fill="#000000" font-family="sans-serif" font-size="12" lengthAdjust="spacingAndGlyphs" textLength="62" x="929" y="382.656">DataVisitor</text><line style="stroke: #383838; stroke-width: 1.5;" x1="901" x2="993" y1="394" y2="394"/><line style="stroke: #383838; stroke-width: 1.5;" x1="901" x2="993" y1="402" y2="402"/><path d="M756,191.5 L756,210 L721.33,214 L756,218 L756,236.912 A0,0 0 0 0 756,236.912 L962,236.912 A0,0 0 0 0 962,236.912 L962,201.5 L952,191.5 L756,191.5 A0,0 0 0 0 756,191.5 " fill="#ECECEC" style="stroke: #383838; stroke-width: 1.0;"/><path d="M952,191.5 L952,201.5 L962,201.5 L952,191.5 " fill="#ECECEC" style="stroke: #383838; stroke-width: 1.0;"/><text fill="#000000" font-family="sans-serif" font-size="13" lengthAdjust="spacingAndGlyphs" textLength="151" x="762" y="210.397">业务只实现 Init() / Proc(...)</text><text fill="#000000" font-family="sans-serif" font-size="13" lengthAdjust="spacingAndGlyphs" textLength="185" x="762" y="228.103">框架替它完成 reader / task 装配</text><path d="M1059,363.5 L1059,408.912 L1221,408.912 L1221,373.5 L1211,363.5 L1059,363.5 " fill="#ECECEC" style="stroke: #383838; stroke-width: 1.0;"/><path d="M1211,363.5 L1211,373.5 L1221,373.5 L1211,363.5 " fill="#ECECEC" style="stroke: #383838; stroke-width: 1.0;"/><text fill="#000000" font-family="sans-serif" font-size="13" lengthAdjust="spacingAndGlyphs" textLength="52" x="1065" y="382.397">统一门面</text><text fill="#000000" font-family="sans-serif" font-size="13" lengthAdjust="spacingAndGlyphs" textLength="141" x="1065" y="400.103">向上隐藏 transport 细节</text><path d="M1059,675.5 L1059,720.912 L1279,720.912 L1279,685.5 L1269,675.5 L1059,675.5 " fill="#ECECEC" style="stroke: #383838; stroke-width: 1.0;"/><path d="M1269,675.5 L1269,685.5 L1279,685.5 L1269,675.5 " fill="#ECECEC" style="stroke: #383838; stroke-width: 1.0;"/><text fill="#000000" font-family="sans-serif" font-size="13" lengthAdjust="spacingAndGlyphs" textLength="130" x="1065" y="694.397">消息真正发出去的地方</text><text fill="#000000" font-family="sans-serif" font-size="13" lengthAdjust="spacingAndGlyphs" textLength="199" x="1065" y="712.103">根据关系选择 INTRA / SHM / RTPS</text><path d="M1059.5,489 L1059.5,552.118 L1184.5,552.118 L1184.5,499 L1174.5,489 L1059.5,489 " fill="#ECECEC" style="stroke: #383838; stroke-width: 1.0;"/><path d="M1174.5,489 L1174.5,499 L1184.5,499 L1174.5,489 " fill="#ECECEC" style="stroke: #383838; stroke-width: 1.0;"/><text fill="#000000" font-family="sans-serif" font-size="13" lengthAdjust="spacingAndGlyphs" textLength="52" x="1065.5" y="507.897">不传消息</text><text fill="#000000" font-family="sans-serif" font-size="13" lengthAdjust="spacingAndGlyphs" textLength="104" x="1065.5" y="525.603">只负责把消息就绪</text><text fill="#000000" font-family="sans-serif" font-size="13" lengthAdjust="spacingAndGlyphs" textLength="104" x="1065.5" y="543.309">变成线程上的执行</text><!--MD5=[6cec0f744e5b6233110cff1c8d0760b6]
reverse link ComponentBase to ComponentMsg--><path d="M609.03,145.18 C620.52,160.18 633.26,176.8 643.24,189.83 " fill="none" id="ComponentBase&lt;-ComponentMsg" style="stroke: #383838; stroke-width: 1.0;"/><polygon fill="none" points="603.4,149.35,596.79,129.22,614.51,140.83,603.4,149.35" style="stroke: #383838; stroke-width: 1.0;"/><!--MD5=[3ff8ec17296821cda5f9517147b6440d]
reverse link ComponentBase to TimerComponent--><path d="M550.08,145.67 C539.24,160.54 527.29,176.94 517.89,189.83 " fill="none" id="ComponentBase&lt;-TimerComponent" style="stroke: #383838; stroke-width: 1.0;"/><polygon fill="none" points="544.64,141.26,562.08,129.22,555.95,149.5,544.64,141.26" style="stroke: #383838; stroke-width: 1.0;"/><!--MD5=[ed64d58875fa620c4b1060c10f8785fb]
link ComponentMsg to Node--><path d="M627.6,238.17 C614.45,246.54 598.94,255.52 584,262 C530.68,285.14 512.38,276.49 458,297 C405.67,316.74 347.97,346 311.86,365.28 " fill="none" id="ComponentMsg-&gt;Node" style="stroke: #383838; stroke-width: 1.0;"/><polygon fill="#383838" points="307.13,367.81,316.9514,367.0745,311.5346,365.4438,313.1654,360.027,307.13,367.81" style="stroke: #383838; stroke-width: 1.0;"/><text fill="#000000" font-family="sans-serif" font-size="13" lengthAdjust="spacingAndGlyphs" textLength="66" x="564" y="284.897">持有 node_</text><!--MD5=[cb79b73b396c037b63136584791f5f63]
link TimerComponent to Node--><path d="M457.33,238.25 C441.1,247.48 422.79,258.61 407,270 C368.87,297.51 328.77,333.98 303.14,358.41 " fill="none" id="TimerComponent-&gt;Node" style="stroke: #383838; stroke-width: 1.0;"/><polygon fill="#383838" points="299.47,361.92,308.7387,358.5896,303.0832,358.4639,303.2089,352.8084,299.47,361.92" style="stroke: #383838; stroke-width: 1.0;"/><text fill="#000000" font-family="sans-serif" font-size="13" lengthAdjust="spacingAndGlyphs" textLength="66" x="408" y="284.897">持有 node_</text><!--MD5=[f28888ae35a60383985e5dedfc54d5e9]
link ComponentMsg to ReaderT--><path d="M630.8,238.03 C617.22,247.14 600.55,256.68 584,262 C561.09,269.36 499.99,268.04 476,270 C409.07,275.48 232.87,262.93 175,297 C108.82,335.96 100.55,366.59 78,440 C72.94,456.48 73.05,475.8 74.5,491.27 " fill="none" id="ComponentMsg-&gt;ReaderT" style="stroke: #383838; stroke-width: 1.0;"/><polygon fill="#383838" points="75.03,496.35,78.0827,486.9862,74.5155,491.3765,70.1251,487.8094,75.03,496.35" style="stroke: #383838; stroke-width: 1.0;"/><text fill="#000000" font-family="sans-serif" font-size="13" lengthAdjust="spacingAndGlyphs" textLength="51" x="176" y="391.397">readers_</text><!--MD5=[dd16c3cefc153ef4763015bca9995418]
link ComponentMsg to DataVisitor--><path d="M691.6,238.11 C705.36,247.23 722.25,256.76 739,262 C765.35,270.25 838.8,256.71 863,270 C897.83,289.12 922.03,329.56 935.22,357.01 " fill="none" id="ComponentMsg-&gt;DataVisitor" style="stroke: #383838; stroke-width: 1.0;"/><polygon fill="#383838" points="937.4,361.63,937.1916,351.7833,935.2731,357.1049,929.9515,355.1864,937.4,361.63" style="stroke: #383838; stroke-width: 1.0;"/><text fill="#000000" font-family="sans-serif" font-size="13" lengthAdjust="spacingAndGlyphs" textLength="26" x="888" y="284.897">创建</text><!--MD5=[3328ad3822135117b7788d798032e93a]
link ComponentMsg to RoutineFactory--><path d="M699.05,238 C711.75,245.65 725.97,254.21 739,262 C765.17,277.65 778.41,273.64 798,297 C847.43,355.95 813.52,396.95 859,459 C868.57,472.06 881.68,483.77 894.36,493.34 " fill="none" id="ComponentMsg-&gt;RoutineFactory" style="stroke: #383838; stroke-width: 1.0;"/><polygon fill="#383838" points="898.64,496.5,893.7714,487.9386,894.6162,493.5321,889.0227,494.3768,898.64,496.5" style="stroke: #383838; stroke-width: 1.0;"/><text fill="#000000" font-family="sans-serif" font-size="13" lengthAdjust="spacingAndGlyphs" textLength="26" x="836" y="391.397">创建</text><!--MD5=[a0ee34d6ee5f6380754ac2892d394fd8]
link ComponentMsg to Scheduler--><path d="M666.13,238.03 C674.72,275.04 693.52,349.71 718,410 C729.71,438.84 746.72,470.07 759.29,491.76 " fill="none" id="ComponentMsg-&gt;Scheduler" style="stroke: #383838; stroke-width: 1.0;"/><polygon fill="#383838" points="761.9,496.24,760.8243,486.4501,759.3824,491.9201,753.9124,490.4782,761.9,496.24" style="stroke: #383838; stroke-width: 1.0;"/><text fill="#000000" font-family="sans-serif" font-size="13" lengthAdjust="spacingAndGlyphs" textLength="74" x="719" y="391.397">CreateTask()</text><!--MD5=[ebb58d7224882007227bdaf830164e75]
link TimerComponent to Scheduler--><path d="M501.21,238.19 C502.75,277.79 511.2,359.09 553,410 C597.68,464.41 676.05,493.95 726.98,508.22 " fill="none" id="TimerComponent-&gt;Scheduler" style="stroke: #383838; stroke-width: 1.0;"/><polygon fill="#383838" points="731.82,509.55,724.2084,503.2999,727.0002,508.2199,722.0802,511.0117,731.82,509.55" style="stroke: #383838; stroke-width: 1.0;"/><text fill="#000000" font-family="sans-serif" font-size="13" lengthAdjust="spacingAndGlyphs" textLength="118" x="554" y="391.397">通过 Timer 间接接入</text><!--MD5=[b79ec00a633200d89d9d3ec14a17a744]
link Node to NodeChannelImpl--><path d="M244.77,400.32 C228.55,409.04 210.24,422.16 201,440 C192.67,456.08 197.76,475.75 205,491.5 " fill="none" id="Node-&gt;NodeChannelImpl" style="stroke: #383838; stroke-width: 1.0;"/><polygon fill="#383838" points="207.31,496.26,206.9759,486.4168,205.1255,491.7625,199.7798,489.912,207.31,496.26" style="stroke: #383838; stroke-width: 1.0;"/><text fill="#000000" font-family="sans-serif" font-size="13" lengthAdjust="spacingAndGlyphs" textLength="102" x="202" y="454.897">channel 相关实现</text><!--MD5=[d164416967cfbaae66375654de943972]
link Node to ReaderT--><path d="M244.88,387.15 C204.79,389.1 135.67,398.73 97,440 C84.2,453.66 79.82,474.44 78.58,491.33 " fill="none" id="Node-&gt;ReaderT" style="stroke: #383838; stroke-width: 1.0;"/><polygon fill="#383838" points="78.29,496.43,82.7984,487.6736,78.5761,491.4382,74.8115,487.2159,78.29,496.43" style="stroke: #383838; stroke-width: 1.0;"/><text fill="#000000" font-family="sans-serif" font-size="13" lengthAdjust="spacingAndGlyphs" textLength="89" x="98" y="454.897">CreateReader()</text><!--MD5=[e8ac2a4a918019ab03259a1d2de377da]
link Node to WriterT--><path d="M290.98,410.08 C305.75,432.83 328.33,467.62 344.05,491.85 " fill="none" id="Node-&gt;WriterT" style="stroke: #383838; stroke-width: 1.0;"/><polygon fill="#383838" points="346.9,496.24,345.3512,486.5137,344.1761,492.0471,338.6426,490.872,346.9,496.24" style="stroke: #383838; stroke-width: 1.0;"/><text fill="#000000" font-family="sans-serif" font-size="13" lengthAdjust="spacingAndGlyphs" textLength="84" x="322" y="454.897">CreateWriter()</text><!--MD5=[73a45bc45f560074e72a970a84c3d6d3]
link ReaderT to ReceiverT--><path d="M92.54,544.81 C111.27,577.02 145,635.06 164.96,669.4 " fill="none" id="ReaderT-&gt;ReceiverT" style="stroke: #383838; stroke-width: 1.0;"/><polygon fill="#383838" points="167.56,673.88,166.5085,664.0874,165.0531,669.5538,159.5867,668.0984,167.56,673.88" style="stroke: #383838; stroke-width: 1.0;"/><text fill="#000000" font-family="sans-serif" font-size="13" lengthAdjust="spacingAndGlyphs" textLength="52" x="125" y="596.897">内部持有</text><!--MD5=[3a593f1ef6bbdfd6408fe1f06fccc633]
link WriterT to TransmitterT--><path d="M362,544.81 C362,576.76 362,634.11 362,668.55 " fill="none" id="WriterT-&gt;TransmitterT" style="stroke: #383838; stroke-width: 1.0;"/><polygon fill="#383838" points="362,673.88,366,664.88,362,668.88,358,664.88,362,673.88" style="stroke: #383838; stroke-width: 1.0;"/><text fill="#000000" font-family="sans-serif" font-size="13" lengthAdjust="spacingAndGlyphs" textLength="52" x="363" y="596.897">内部持有</text><!--MD5=[07584d6a51af89a51bbff4390c8bcaf6]
link ReceiverT to HybridReceiver--><path d="M183.12,722.12 C184.66,738.88 186.75,761.65 188.39,779.54 " fill="none" id="ReceiverT-&gt;HybridReceiver" style="stroke: #383838; stroke-width: 1.0;"/><polygon fill="#383838" points="188.88,784.92,192.0415,775.5924,188.4235,779.9409,184.0749,776.3228,188.88,784.92" style="stroke: #383838; stroke-width: 1.0;"/><!--MD5=[94e695b665740eae73b42e49861d6ec0]
link TransmitterT to HybridTransmitter--><path d="M359.88,722.12 C358.34,738.88 356.25,761.65 354.61,779.54 " fill="none" id="TransmitterT-&gt;HybridTransmitter" style="stroke: #383838; stroke-width: 1.0;"/><polygon fill="#383838" points="354.12,784.92,358.9251,776.3228,354.5765,779.9409,350.9585,775.5924,354.12,784.92" style="stroke: #383838; stroke-width: 1.0;"/><!--MD5=[4d58cb6e73b430d8e128216b9dd1330a]
link HybridReceiver to Dispatcher--><path d="M199.08,833.02 C204.32,847.31 211.53,865.95 219,882 C222.92,890.42 227.6,899.36 232.05,907.46 " fill="none" id="HybridReceiver-&gt;Dispatcher" style="stroke: #383838; stroke-width: 1.0;"/><polygon fill="#383838" points="234.49,911.85,233.6158,902.04,232.0618,907.4792,226.6226,905.9252,234.49,911.85" style="stroke: #383838; stroke-width: 1.0;"/><text fill="#000000" font-family="sans-serif" font-size="13" lengthAdjust="spacingAndGlyphs" textLength="52" x="220" y="877.897">分发消息</text><!--MD5=[86e6d634c504c5989a1e1d1f40f0e001]
link HybridTransmitter to Dispatcher--><path d="M332.68,833.22 C315.1,854.36 289.12,885.57 270.59,907.85 " fill="none" id="HybridTransmitter-&gt;Dispatcher" style="stroke: #383838; stroke-width: 1.0;"/><polygon fill="#383838" points="267.21,911.91,276.043,907.5535,270.4095,908.0677,269.8953,902.4343,267.21,911.91" style="stroke: #383838; stroke-width: 1.0;"/><text fill="#000000" font-family="sans-serif" font-size="13" lengthAdjust="spacingAndGlyphs" textLength="91" x="307" y="877.897">选择链路后投递</text><!--MD5=[124d07cd476e0b22a4be7df6b02caca9]
link Scheduler to Processor--><path d="M745.01,544.64 C733.98,554.75 722.86,567.6 717,582 C705.63,609.95 711.75,644.72 718.74,668.67 " fill="none" id="Scheduler-&gt;Processor" style="stroke: #383838; stroke-width: 1.0;"/><polygon fill="#383838" points="720.24,673.61,721.4718,663.8385,718.7967,668.8228,713.8123,666.1477,720.24,673.61" style="stroke: #383838; stroke-width: 1.0;"/><text fill="#000000" font-family="sans-serif" font-size="13" lengthAdjust="spacingAndGlyphs" textLength="78" x="718" y="596.897">管理工作线程</text><!--MD5=[e9fcf7b2552a0a842524b5295542f6d3]
link Scheduler to CRoutine--><path d="M792.37,544.53 C803.72,560.43 819.2,582.05 833,601 C849.9,624.21 869.3,650.41 883.55,669.57 " fill="none" id="Scheduler-&gt;CRoutine" style="stroke: #383838; stroke-width: 1.0;"/><polygon fill="#383838" points="886.69,673.79,884.5505,664.1763,883.7152,669.7712,878.1204,668.936,886.69,673.79" style="stroke: #383838; stroke-width: 1.0;"/><text fill="#000000" font-family="sans-serif" font-size="13" lengthAdjust="spacingAndGlyphs" textLength="78" x="834" y="596.897">管理协程任务</text><!--MD5=[7263a1814e2d62f7735352d939b223e4]
link RoutineFactory to CRoutine--><path d="M931.75,544.81 C925.92,576.76 915.47,634.11 909.19,668.55 " fill="none" id="RoutineFactory-&gt;CRoutine" style="stroke: #383838; stroke-width: 1.0;"/><polygon fill="#383838" points="908.22,673.88,913.7529,665.7322,909.1069,668.9593,905.8798,664.3132,908.22,673.88" style="stroke: #383838; stroke-width: 1.0;"/><text fill="#000000" font-family="sans-serif" font-size="13" lengthAdjust="spacingAndGlyphs" textLength="65" x="925" y="596.897">创建任务体</text><!--MD5=[74c2fe7cc83d81d3be852478e938989a]
link DataVisitor to Scheduler--><path d="M917.21,410.08 C887.27,433.28 841.17,469 809.86,493.27 " fill="none" id="DataVisitor-&gt;Scheduler" style="stroke: #383838; stroke-width: 1.0;"/><polygon fill="#383838" points="805.73,496.46,815.2881,494.0848,809.6745,493.3873,810.3719,487.7736,805.73,496.46" style="stroke: #383838; stroke-width: 1.0;"/><text fill="#000000" font-family="sans-serif" font-size="13" lengthAdjust="spacingAndGlyphs" textLength="130" x="877" y="454.897">为调度提供可访问消息</text><!--MD5=[a36dc1d78fdc911cdd70d7b753ab24f2]
link Node to GMN48--><path d="M307.16,363.04 C344.81,336.86 411.13,295.61 475.5,279.5 C534.78,264.67 968.63,257.14 1025.5,279.5 C1068.2,296.29 1104.42,337.32 1124.11,363.28 " fill="none" id="Node-GMN48" style="stroke: #383838; stroke-width: 1.0; stroke-dasharray: 7.0,7.0;"/><!--MD5=[8d645aa0f66a5388a534f7ff9b2c5836]
link TransmitterT to GMN51--><path d="M415.45,673.99 C478.67,647.02 587.8,604.92 686.5,588.75 C760.84,576.57 954.12,564.67 1025.5,588.75 C1075.94,605.76 1122.67,648.36 1148.37,675.06 " fill="none" id="TransmitterT-GMN51" style="stroke: #383838; stroke-width: 1.0; stroke-dasharray: 7.0,7.0;"/><!--MD5=[7823f608c743067c85dfdf026b3b2088]
link Scheduler to GMN54--><path d="M801.42,496.26 C820.83,479.51 849.16,458.67 878.5,449.5 C940.86,430.01 963.43,429.12 1025.5,449.5 C1049.41,457.35 1072.28,473.64 1089.75,488.64 " fill="none" id="Scheduler-GMN54" style="stroke: #383838; stroke-width: 1.0; stroke-dasharray: 7.0,7.0;"/><!--MD5=[76715b1ea551f3623ffe48e9b6d50c75]
@startuml
skinparam shadowing false
skinparam monochrome true
skinparam defaultTextAlignment center

package "Component Layer\n业务执行层" {
  class ComponentBase
  class "Component<M...>" as ComponentMsg
  class TimerComponent
}

package "Node Layer\n通信门面层" {
  class Node
  class NodeChannelImpl
  class "Reader<T>" as ReaderT
  class "Writer<T>" as WriterT
}

package "Transport Layer\n消息传输层" {
  class "Receiver<T>" as ReceiverT
  class "Transmitter<T>" as TransmitterT
  class HybridReceiver
  class HybridTransmitter
  class Dispatcher
}

package "Scheduler Layer\n执行调度层" {
  class Scheduler
  class Processor
  class CRoutine
  class RoutineFactory
  class DataVisitor
}

ComponentBase <|- - ComponentMsg
ComponentBase <|- - TimerComponent

ComponentMsg - -> Node : 持有 node_
TimerComponent - -> Node : 持有 node_
ComponentMsg - -> ReaderT : readers_
ComponentMsg - -> DataVisitor : 创建
ComponentMsg - -> RoutineFactory : 创建
ComponentMsg - -> Scheduler : CreateTask()
TimerComponent - -> Scheduler : 通过 Timer 间接接入

Node - -> NodeChannelImpl : channel 相关实现
Node - -> ReaderT : CreateReader()
Node - -> WriterT : CreateWriter()

ReaderT - -> ReceiverT : 内部持有
WriterT - -> TransmitterT : 内部持有

ReceiverT - -> HybridReceiver
TransmitterT - -> HybridTransmitter
HybridReceiver - -> Dispatcher : 分发消息
HybridTransmitter - -> Dispatcher : 选择链路后投递

Scheduler - -> Processor : 管理工作线程
Scheduler - -> CRoutine : 管理协程任务
RoutineFactory - -> CRoutine : 创建任务体
DataVisitor - -> Scheduler : 为调度提供可访问消息

note right of ComponentMsg
业务只实现 Init() / Proc(...)
框架替它完成 reader / task 装配
end note

note right of Node
统一门面
向上隐藏 transport 细节
end note

note right of TransmitterT
消息真正发出去的地方
根据关系选择 INTRA / SHM / RTPS
end note

note right of Scheduler
不传消息
只负责把消息就绪
变成线程上的执行
end note
@enduml

PlantUML version 1.2020.02(Sun Mar 01 18:22:07 CST 2020)
(GPL source distribution)
Java Runtime: OpenJDK Runtime Environment
JVM: OpenJDK 64-Bit Server VM
Java Version: 21.0.11+10-1-24.04.2-Ubuntu
Operating System: Linux
Default Encoding: UTF-8
Language: en
Country: US
--></g></svg>