<?xml version="1.0" encoding="UTF-8" standalone="no"?><svg xmlns="http://www.w3.org/2000/svg" xmlns:xlink="http://www.w3.org/1999/xlink" contentScriptType="application/ecmascript" contentStyleType="text/css" height="1039px" preserveAspectRatio="none" style="width:704px;height:1039px;" version="1.1" viewBox="0 0 704 1039" width="704px" zoomAndPan="magnify"><defs/><g><ellipse cx="351.5" cy="20" fill="#000000" rx="10" ry="10" style="stroke: none; stroke-width: 1.0;"/><rect fill="#F8F8F8" height="36.3441" rx="12.5" ry="12.5" style="stroke: #383838; stroke-width: 1.5;" width="155" x="274" y="50"/><text fill="#000000" font-family="sans-serif" font-size="12" lengthAdjust="spacingAndGlyphs" textLength="135" x="284" y="72.8281">mainboard 启动 process</text><rect fill="#F8F8F8" height="36.3441" rx="12.5" ry="12.5" style="stroke: #383838; stroke-width: 1.5;" width="142" x="280.5" y="106.3441"/><text fill="#000000" font-family="sans-serif" font-size="12" lengthAdjust="spacingAndGlyphs" textLength="122" x="290.5" y="129.1722">读取 launch / dag 配置</text><rect fill="#F8F8F8" height="36.3441" rx="12.5" ry="12.5" style="stroke: #383838; stroke-width: 1.5;" width="149" x="277" y="162.6882"/><text fill="#000000" font-family="sans-serif" font-size="12" lengthAdjust="spacingAndGlyphs" textLength="129" x="287" y="185.5163">dlopen(module_library)</text><rect fill="#F8F8F8" height="52.6882" rx="12.5" ry="12.5" style="stroke: #383838; stroke-width: 1.5;" width="184" x="259.5" y="219.0323"/><text fill="#000000" font-family="sans-serif" font-size="12" lengthAdjust="spacingAndGlyphs" textLength="164" x="269.5" y="241.8604">ClassLoader 根据 class_name</text><text fill="#000000" font-family="sans-serif" font-size="12" lengthAdjust="spacingAndGlyphs" textLength="117" x="293" y="258.2045">创建 component 对象</text><rect fill="#F8F8F8" height="36.3441" rx="12.5" ry="12.5" style="stroke: #383838; stroke-width: 1.5;" width="210" x="246.5" y="291.7206"/><text fill="#000000" font-family="sans-serif" font-size="12" lengthAdjust="spacingAndGlyphs" textLength="190" x="256.5" y="314.5487">调用 component-&gt;Initialize(config)</text><polygon fill="#F8F8F8" points="83,348.0647,200,348.0647,212,360.0647,200,372.0647,83,372.0647,71,360.0647,83,348.0647" style="stroke: #383838; stroke-width: 1.5;"/><text fill="#000000" font-family="sans-serif" font-size="11" lengthAdjust="spacingAndGlyphs" textLength="17" x="145.5" y="383.8236">yes</text><text fill="#000000" font-family="sans-serif" font-size="11" lengthAdjust="spacingAndGlyphs" textLength="117" x="83" y="364.3327">普通 Component&lt;M&gt; ?</text><rect fill="#F8F8F8" height="36.3441" rx="12.5" ry="12.5" style="stroke: #383838; stroke-width: 1.5;" width="80" x="101.5" y="405.3236"/><text fill="#000000" font-family="sans-serif" font-size="12" lengthAdjust="spacingAndGlyphs" textLength="60" x="111.5" y="428.1517">创建 node_</text><rect fill="#F8F8F8" height="36.3441" rx="12.5" ry="12.5" style="stroke: #383838; stroke-width: 1.5;" width="150" x="66.5" y="461.6677"/><text fill="#000000" font-family="sans-serif" font-size="12" lengthAdjust="spacingAndGlyphs" textLength="130" x="76.5" y="484.4958">LoadConfigFiles(config)</text><rect fill="#F8F8F8" height="36.3441" rx="12.5" ry="12.5" style="stroke: #383838; stroke-width: 1.5;" width="97" x="93" y="518.0118"/><text fill="#000000" font-family="sans-serif" font-size="12" lengthAdjust="spacingAndGlyphs" textLength="77" x="103" y="540.8399">调用业务 Init()</text><rect fill="#F8F8F8" height="36.3441" rx="12.5" ry="12.5" style="stroke: #383838; stroke-width: 1.5;" width="87" x="98" y="578.8469"/><text fill="#000000" font-family="sans-serif" font-size="12" lengthAdjust="spacingAndGlyphs" textLength="67" x="108" y="601.675">创建 Reader</text><rect fill="#F8F8F8" height="36.3441" rx="12.5" ry="12.5" style="stroke: #383838; stroke-width: 1.5;" width="109" x="87" y="639.6819"/><text fill="#000000" font-family="sans-serif" font-size="12" lengthAdjust="spacingAndGlyphs" textLength="89" x="97" y="662.51">创建 DataVisitor</text><rect fill="#F8F8F8" height="36.3441" rx="12.5" ry="12.5" style="stroke: #383838; stroke-width: 1.5;" width="130" x="76.5" y="700.517"/><text fill="#000000" font-family="sans-serif" font-size="12" lengthAdjust="spacingAndGlyphs" textLength="110" x="86.5" y="723.3451">创建 RoutineFactory</text><rect fill="#F8F8F8" height="36.3441" rx="12.5" ry="12.5" style="stroke: #383838; stroke-width: 1.5;" width="167" x="58" y="761.3521"/><text fill="#000000" font-family="sans-serif" font-size="12" lengthAdjust="spacingAndGlyphs" textLength="147" x="68" y="784.1801">scheduler-&gt;CreateTask(...)</text><rect fill="#F8F8F8" height="36.3441" rx="12.5" ry="12.5" style="stroke: #383838; stroke-width: 1.5;" width="103" x="90" y="817.6962"/><text fill="#000000" font-family="sans-serif" font-size="12" lengthAdjust="spacingAndGlyphs" textLength="83" x="100" y="840.5243">channel 来消息</text><rect fill="#F8F8F8" height="36.3441" rx="12.5" ry="12.5" style="stroke: #383838; stroke-width: 1.5;" width="263" x="10" y="874.0403"/><text fill="#000000" font-family="sans-serif" font-size="12" lengthAdjust="spacingAndGlyphs" textLength="243" x="20" y="896.8684">scheduler worker thread 执行 Process(msg)</text><rect fill="#F8F8F8" height="36.3441" rx="12.5" ry="12.5" style="stroke: #383838; stroke-width: 1.5;" width="104" x="89.5" y="930.3844"/><text fill="#000000" font-family="sans-serif" font-size="12" lengthAdjust="spacingAndGlyphs" textLength="84" x="99.5" y="953.2125">调用 Proc(msg)</text><polygon fill="#F8F8F8" points="333,348.0647,433,348.0647,445,360.0647,433,372.0647,333,372.0647,321,360.0647,333,348.0647" style="stroke: #383838; stroke-width: 1.5;"/><text fill="#000000" font-family="sans-serif" font-size="11" lengthAdjust="spacingAndGlyphs" textLength="17" x="387" y="383.8236">yes</text><text fill="#000000" font-family="sans-serif" font-size="11" lengthAdjust="spacingAndGlyphs" textLength="100" x="333" y="364.3327">TimerComponent ?</text><text fill="#000000" font-family="sans-serif" font-size="11" lengthAdjust="spacingAndGlyphs" textLength="66" x="445" y="356.8417">业务自建线程</text><rect fill="#F8F8F8" height="36.3441" rx="12.5" ry="12.5" style="stroke: #383838; stroke-width: 1.5;" width="80" x="343" y="405.3236"/><text fill="#000000" font-family="sans-serif" font-size="12" lengthAdjust="spacingAndGlyphs" textLength="60" x="353" y="428.1517">创建 node_</text><rect fill="#F8F8F8" height="36.3441" rx="12.5" ry="12.5" style="stroke: #383838; stroke-width: 1.5;" width="150" x="308" y="461.6677"/><text fill="#000000" font-family="sans-serif" font-size="12" lengthAdjust="spacingAndGlyphs" textLength="130" x="318" y="484.4958">LoadConfigFiles(config)</text><rect fill="#F8F8F8" height="36.3441" rx="12.5" ry="12.5" style="stroke: #383838; stroke-width: 1.5;" width="97" x="334.5" y="518.0118"/><text fill="#000000" font-family="sans-serif" font-size="12" lengthAdjust="spacingAndGlyphs" textLength="77" x="344.5" y="540.8399">调用业务 Init()</text><rect fill="#F8F8F8" height="36.3441" rx="12.5" ry="12.5" style="stroke: #383838; stroke-width: 1.5;" width="80" x="343" y="578.8469"/><text fill="#000000" font-family="sans-serif" font-size="12" lengthAdjust="spacingAndGlyphs" textLength="60" x="353" y="601.675">创建 Timer</text><rect fill="#F8F8F8" height="36.3441" rx="12.5" ry="12.5" style="stroke: #383838; stroke-width: 1.5;" width="101" x="332.5" y="639.6819"/><text fill="#000000" font-family="sans-serif" font-size="12" lengthAdjust="spacingAndGlyphs" textLength="81" x="342.5" y="662.51">timer_-&gt;Start()</text><rect fill="#F8F8F8" height="36.3441" rx="12.5" ry="12.5" style="stroke: #383838; stroke-width: 1.5;" width="77" x="344.5" y="700.517"/><text fill="#000000" font-family="sans-serif" font-size="12" lengthAdjust="spacingAndGlyphs" textLength="57" x="354.5" y="723.3451">timer 到期</text><rect fill="#F8F8F8" height="36.3441" rx="12.5" ry="12.5" style="stroke: #383838; stroke-width: 1.5;" width="180" x="293" y="761.3521"/><text fill="#000000" font-family="sans-serif" font-size="12" lengthAdjust="spacingAndGlyphs" textLength="160" x="303" y="784.1801">timer 驱动线程执行 Process()</text><rect fill="#F8F8F8" height="36.3441" rx="12.5" ry="12.5" style="stroke: #383838; stroke-width: 1.5;" width="80" x="343" y="817.6962"/><text fill="#000000" font-family="sans-serif" font-size="12" lengthAdjust="spacingAndGlyphs" textLength="60" x="353" y="840.5243">调用 Proc()</text><rect fill="#F8F8F8" height="36.3441" rx="12.5" ry="12.5" style="stroke: #383838; stroke-width: 1.5;" width="155" x="515.5" y="574.3559"/><text fill="#000000" font-family="sans-serif" font-size="12" lengthAdjust="spacingAndGlyphs" textLength="135" x="525.5" y="597.184">创建 node_ / 调业务 Init()</text><rect fill="#F8F8F8" height="36.3441" rx="12.5" ry="12.5" style="stroke: #383838; stroke-width: 1.5;" width="199" x="493.5" y="635.191"/><text fill="#000000" font-family="sans-serif" font-size="12" lengthAdjust="spacingAndGlyphs" textLength="179" x="503.5" y="658.0191">业务代码 std::thread(...) 拉起线程</text><rect fill="#F8F8F8" height="36.3441" rx="12.5" ry="12.5" style="stroke: #383838; stroke-width: 1.5;" width="198" x="494" y="696.0261"/><text fill="#000000" font-family="sans-serif" font-size="12" lengthAdjust="spacingAndGlyphs" textLength="178" x="504" y="718.8541">业务线程收硬件数据 / 跑循环逻辑</text><rect fill="#F8F8F8" height="36.3441" rx="12.5" ry="12.5" style="stroke: #383838; stroke-width: 1.5;" width="200" x="493" y="756.8611"/><text fill="#000000" font-family="sans-serif" font-size="12" lengthAdjust="spacingAndGlyphs" textLength="180" x="503" y="779.6892">业务线程内部发布消息或处理数据</text><ellipse cx="351.5" cy="1017.7285" fill="#FFFFFF" rx="11" ry="11" style="stroke: #000000; stroke-width: 1.0;"/><ellipse cx="351.5" cy="1017.7285" fill="#000000" rx="6" ry="6" style="stroke: #7F7F7F; stroke-width: 1.0;"/><line style="stroke: #383838; stroke-width: 1.5;" x1="351.5" x2="351.5" y1="30" y2="50"/><polygon fill="#383838" points="347.5,40,351.5,50,355.5,40,351.5,44" style="stroke: #383838; stroke-width: 1.0;"/><line style="stroke: #383838; stroke-width: 1.5;" x1="351.5" x2="351.5" y1="86.3441" y2="106.3441"/><polygon fill="#383838" points="347.5,96.3441,351.5,106.3441,355.5,96.3441,351.5,100.3441" style="stroke: #383838; stroke-width: 1.0;"/><line style="stroke: #383838; stroke-width: 1.5;" x1="351.5" x2="351.5" y1="142.6882" y2="162.6882"/><polygon fill="#383838" points="347.5,152.6882,351.5,162.6882,355.5,152.6882,351.5,156.6882" style="stroke: #383838; stroke-width: 1.0;"/><line style="stroke: #383838; stroke-width: 1.5;" x1="351.5" x2="351.5" y1="199.0323" y2="219.0323"/><polygon fill="#383838" points="347.5,209.0323,351.5,219.0323,355.5,209.0323,351.5,213.0323" style="stroke: #383838; stroke-width: 1.0;"/><line style="stroke: #383838; stroke-width: 1.5;" x1="351.5" x2="351.5" y1="271.7206" y2="291.7206"/><polygon fill="#383838" points="347.5,281.7206,351.5,291.7206,355.5,281.7206,351.5,285.7206" style="stroke: #383838; stroke-width: 1.0;"/><line style="stroke: #383838; stroke-width: 1.5;" x1="141.5" x2="141.5" y1="441.6677" y2="461.6677"/><polygon fill="#383838" points="137.5,451.6677,141.5,461.6677,145.5,451.6677,141.5,455.6677" style="stroke: #383838; stroke-width: 1.0;"/><line style="stroke: #383838; stroke-width: 1.5;" x1="141.5" x2="141.5" y1="498.0118" y2="518.0118"/><polygon fill="#383838" points="137.5,508.0118,141.5,518.0118,145.5,508.0118,141.5,512.0118" style="stroke: #383838; stroke-width: 1.0;"/><line style="stroke: #383838; stroke-width: 1.5;" x1="141.5" x2="141.5" y1="554.3559" y2="578.8469"/><polygon fill="#383838" points="137.5,568.8469,141.5,578.8469,145.5,568.8469,141.5,572.8469" style="stroke: #383838; stroke-width: 1.0;"/><line style="stroke: #383838; stroke-width: 1.5;" x1="141.5" x2="141.5" y1="615.191" y2="639.6819"/><polygon fill="#383838" points="137.5,629.6819,141.5,639.6819,145.5,629.6819,141.5,633.6819" style="stroke: #383838; stroke-width: 1.0;"/><line style="stroke: #383838; stroke-width: 1.5;" x1="141.5" x2="141.5" y1="676.0261" y2="700.517"/><polygon fill="#383838" points="137.5,690.517,141.5,700.517,145.5,690.517,141.5,694.517" style="stroke: #383838; stroke-width: 1.0;"/><line style="stroke: #383838; stroke-width: 1.5;" x1="141.5" x2="141.5" y1="736.8611" y2="761.3521"/><polygon fill="#383838" points="137.5,751.3521,141.5,761.3521,145.5,751.3521,141.5,755.3521" style="stroke: #383838; stroke-width: 1.0;"/><line style="stroke: #383838; stroke-width: 1.5;" x1="141.5" x2="141.5" y1="797.6962" y2="817.6962"/><polygon fill="#383838" points="137.5,807.6962,141.5,817.6962,145.5,807.6962,141.5,811.6962" style="stroke: #383838; stroke-width: 1.0;"/><line style="stroke: #383838; stroke-width: 1.5;" x1="141.5" x2="141.5" y1="854.0403" y2="874.0403"/><polygon fill="#383838" points="137.5,864.0403,141.5,874.0403,145.5,864.0403,141.5,868.0403" style="stroke: #383838; stroke-width: 1.0;"/><line style="stroke: #383838; stroke-width: 1.5;" x1="141.5" x2="141.5" y1="910.3844" y2="930.3844"/><polygon fill="#383838" points="137.5,920.3844,141.5,930.3844,145.5,920.3844,141.5,924.3844" style="stroke: #383838; stroke-width: 1.0;"/><line style="stroke: #383838; stroke-width: 1.5;" x1="383" x2="383" y1="441.6677" y2="461.6677"/><polygon fill="#383838" points="379,451.6677,383,461.6677,387,451.6677,383,455.6677" style="stroke: #383838; stroke-width: 1.0;"/><line style="stroke: #383838; stroke-width: 1.5;" x1="383" x2="383" y1="498.0118" y2="518.0118"/><polygon fill="#383838" points="379,508.0118,383,518.0118,387,508.0118,383,512.0118" style="stroke: #383838; stroke-width: 1.0;"/><line style="stroke: #383838; stroke-width: 1.5;" x1="383" x2="383" y1="554.3559" y2="578.8469"/><polygon fill="#383838" points="379,568.8469,383,578.8469,387,568.8469,383,572.8469" style="stroke: #383838; stroke-width: 1.0;"/><line style="stroke: #383838; stroke-width: 1.5;" x1="383" x2="383" y1="615.191" y2="639.6819"/><polygon fill="#383838" points="379,629.6819,383,639.6819,387,629.6819,383,633.6819" style="stroke: #383838; stroke-width: 1.0;"/><line style="stroke: #383838; stroke-width: 1.5;" x1="383" x2="383" y1="676.0261" y2="700.517"/><polygon fill="#383838" points="379,690.517,383,700.517,387,690.517,383,694.517" style="stroke: #383838; stroke-width: 1.0;"/><line style="stroke: #383838; stroke-width: 1.5;" x1="383" x2="383" y1="736.8611" y2="761.3521"/><polygon fill="#383838" points="379,751.3521,383,761.3521,387,751.3521,383,755.3521" style="stroke: #383838; stroke-width: 1.0;"/><line style="stroke: #383838; stroke-width: 1.5;" x1="383" x2="383" y1="797.6962" y2="817.6962"/><polygon fill="#383838" points="379,807.6962,383,817.6962,387,807.6962,383,811.6962" style="stroke: #383838; stroke-width: 1.0;"/><line style="stroke: #383838; stroke-width: 1.5;" x1="593" x2="593" y1="610.7001" y2="635.191"/><polygon fill="#383838" points="589,625.191,593,635.191,597,625.191,593,629.191" style="stroke: #383838; stroke-width: 1.0;"/><line style="stroke: #383838; stroke-width: 1.5;" x1="593" x2="593" y1="671.5351" y2="696.0261"/><polygon fill="#383838" points="589,686.0261,593,696.0261,597,686.0261,593,690.0261" style="stroke: #383838; stroke-width: 1.0;"/><line style="stroke: #383838; stroke-width: 1.5;" x1="593" x2="593" y1="732.3702" y2="756.8611"/><polygon fill="#383838" points="589,746.8611,593,756.8611,597,746.8611,593,750.8611" style="stroke: #383838; stroke-width: 1.0;"/><line style="stroke: #383838; stroke-width: 1.5;" x1="141.5" x2="141.5" y1="372.0647" y2="405.3236"/><polygon fill="#383838" points="137.5,395.3236,141.5,405.3236,145.5,395.3236,141.5,399.3236" style="stroke: #383838; stroke-width: 1.0;"/><line style="stroke: #383838; stroke-width: 1.5;" x1="141.5" x2="141.5" y1="966.7285" y2="986.7285"/><polygon fill="#383838" points="137.5,976.7285,141.5,986.7285,145.5,976.7285,141.5,980.7285" style="stroke: #383838; stroke-width: 1.0;"/><line style="stroke: #383838; stroke-width: 1.5;" x1="383" x2="383" y1="372.0647" y2="405.3236"/><polygon fill="#383838" points="379,395.3236,383,405.3236,387,395.3236,383,399.3236" style="stroke: #383838; stroke-width: 1.0;"/><line style="stroke: #383838; stroke-width: 1.5;" x1="383" x2="383" y1="854.0403" y2="986.7285"/><polygon fill="#383838" points="379,976.7285,383,986.7285,387,976.7285,383,980.7285" style="stroke: #383838; stroke-width: 1.0;"/><line style="stroke: #383838; stroke-width: 1.5;" x1="212" x2="321" y1="360.0647" y2="360.0647"/><polygon fill="#383838" points="311,356.0647,321,360.0647,311,364.0647,315,360.0647" style="stroke: #383838; stroke-width: 1.0;"/><line style="stroke: #383838; stroke-width: 1.5;" x1="351.5" x2="351.5" y1="328.0647" y2="333.0647"/><line style="stroke: #383838; stroke-width: 1.5;" x1="351.5" x2="141.5" y1="333.0647" y2="333.0647"/><line style="stroke: #383838; stroke-width: 1.5;" x1="141.5" x2="141.5" y1="333.0647" y2="348.0647"/><polygon fill="#383838" points="137.5,338.0647,141.5,348.0647,145.5,338.0647,141.5,342.0647" style="stroke: #383838; stroke-width: 1.0;"/><line style="stroke: #383838; stroke-width: 1.5;" x1="445" x2="593" y1="360.0647" y2="360.0647"/><line style="stroke: #383838; stroke-width: 1.5;" x1="593" x2="593" y1="360.0647" y2="574.3559"/><polygon fill="#383838" points="589,564.3559,593,574.3559,597,564.3559,593,568.3559" style="stroke: #383838; stroke-width: 1.0;"/><line style="stroke: #383838; stroke-width: 1.5;" x1="593" x2="593" y1="793.2052" y2="986.7285"/><polygon fill="#383838" points="589,976.7285,593,986.7285,597,976.7285,593,980.7285" style="stroke: #383838; stroke-width: 1.0;"/><line style="stroke: #383838; stroke-width: 1.5;" x1="141.5" x2="593" y1="986.7285" y2="986.7285"/><line style="stroke: #383838; stroke-width: 1.5;" x1="351.5" x2="351.5" y1="986.7285" y2="1006.7285"/><polygon fill="#383838" points="347.5,996.7285,351.5,1006.7285,355.5,996.7285,351.5,1000.7285" style="stroke: #383838; stroke-width: 1.0;"/><!--MD5=[3368921d0674f1dd6f02780d9331a21b]
@startuml
skinparam shadowing false
skinparam monochrome true
skinparam defaultTextAlignment center

start
:mainboard 启动 process;
:读取 launch / dag 配置;
:dlopen(module_library);
:ClassLoader 根据 class_name\n创建 component 对象;
:调用 component->Initialize(config);

if (普通 Component<M> ?) then (yes)
  :创建 node_;
  :LoadConfigFiles(config);
  :调用业务 Init();
  :创建 Reader;
  :创建 DataVisitor;
  :创建 RoutineFactory;
  :scheduler->CreateTask(...);
  :channel 来消息;
  :scheduler worker thread 执行 Process(msg);
  :调用 Proc(msg);
elseif (TimerComponent ?) then (yes)
  :创建 node_;
  :LoadConfigFiles(config);
  :调用业务 Init();
  :创建 Timer;
  :timer_->Start();
  :timer 到期;
  :timer 驱动线程执行 Process();
  :调用 Proc();
else (业务自建线程)
  :创建 node_ / 调业务 Init();
  :业务代码 std::thread(...) 拉起线程;
  :业务线程收硬件数据 / 跑循环逻辑;
  :业务线程内部发布消息或处理数据;
endif

stop
@enduml

PlantUML version 1.2020.02(Sun Mar 01 18:22:07 CST 2020)
(GPL source distribution)
Java Runtime: OpenJDK Runtime Environment
JVM: OpenJDK 64-Bit Server VM
Java Version: 21.0.11+10-1-24.04.2-Ubuntu
Operating System: Linux
Default Encoding: UTF-8
Language: en
Country: US
--></g></svg>