<?xml version="1.0" encoding="UTF-8" standalone="no"?><svg xmlns="http://www.w3.org/2000/svg" xmlns:xlink="http://www.w3.org/1999/xlink" contentScriptType="application/ecmascript" contentStyleType="text/css" height="588px" preserveAspectRatio="none" style="width:1065px;height:588px;" version="1.1" viewBox="0 0 1065 588" width="1065px" zoomAndPan="magnify"><defs/><g><!--MD5=[91cb68fd87b3b72b9708791b96876208]
cluster Process--><rect fill="#FFFFFF" height="325" style="stroke: #000000; stroke-width: 1.5;" width="795" x="62.5" y="130"/><text fill="#000000" font-family="sans-serif" font-size="14" font-weight="bold" lengthAdjust="spacingAndGlyphs" textLength="76" x="422" y="146.9659">OS Process</text><text fill="#000000" font-family="sans-serif" font-size="14" font-weight="bold" lengthAdjust="spacingAndGlyphs" textLength="192" x="364" y="166.0339">process_name = lidar_driver</text><!--MD5=[fc7ecec23249b7907f1659666da65a01]
cluster Runtime--><rect fill="#FFFFFF" height="220" style="stroke: #000000; stroke-width: 1.5;" width="723" x="102.5" y="203"/><text fill="#000000" font-family="sans-serif" font-size="14" font-weight="bold" lengthAdjust="spacingAndGlyphs" textLength="148" x="390" y="219.9659">Mainboard / Runtime</text><!--MD5=[c8faa2adaeb7de8ccf96e5e8426b9f27]
cluster DAG--><rect fill="#FFFFFF" height="150" style="stroke: #000000; stroke-width: 1.5;" width="675" x="126.5" y="249"/><text fill="#000000" font-family="sans-serif" font-size="14" font-weight="bold" lengthAdjust="spacingAndGlyphs" textLength="168" x="380" y="265.9659">DAG: velodyne_lidar.dag</text><!--MD5=[e514c8786b1fbc2322a2e391ae977379]
entity DriverComp--><rect fill="#F8F8F8" height="96.2717" style="stroke: #000000; stroke-width: 1.5;" width="173" x="143" y="287"/><text fill="#000000" font-family="sans-serif" font-size="14" lengthAdjust="spacingAndGlyphs" textLength="153" x="153" y="311.9659">LidarDriverComponent</text><text fill="#000000" font-family="sans-serif" font-size="14" lengthAdjust="spacingAndGlyphs" textLength="128" x="165.5" y="331.0339">职责: 收硬件 UDP 包</text><text fill="#000000" font-family="sans-serif" font-size="14" lengthAdjust="spacingAndGlyphs" textLength="125" x="167" y="350.1018">组装 VelodyneScan</text><text fill="#000000" font-family="sans-serif" font-size="14" lengthAdjust="spacingAndGlyphs" textLength="122" x="168.5" y="369.1697">发布 Scan channel</text><!--MD5=[e2f12797cbe73eda50acc1c1484424a3]
entity ConvertComp--><rect fill="#F8F8F8" height="96.2717" style="stroke: #000000; stroke-width: 1.5;" width="211" x="351" y="287"/><text fill="#000000" font-family="sans-serif" font-size="14" lengthAdjust="spacingAndGlyphs" textLength="191" x="361" y="311.9659">VelodyneConvertComponent</text><text fill="#000000" font-family="sans-serif" font-size="14" lengthAdjust="spacingAndGlyphs" textLength="100" x="406.5" y="331.0339">职责: 订阅 Scan</text><text fill="#000000" font-family="sans-serif" font-size="14" lengthAdjust="spacingAndGlyphs" textLength="105" x="404" y="350.1018">转成 PointCloud</text><text fill="#000000" font-family="sans-serif" font-size="14" lengthAdjust="spacingAndGlyphs" textLength="171" x="371" y="369.1697">发布 PointCloud2 channel</text><!--MD5=[5b46a1a07d332133a2664a1abd9f7197]
entity CompComp--><rect fill="#F8F8F8" height="96.2717" style="stroke: #000000; stroke-width: 1.5;" width="188" x="597.5" y="287"/><text fill="#000000" font-family="sans-serif" font-size="14" lengthAdjust="spacingAndGlyphs" textLength="168" x="607.5" y="311.9659">CompensatorComponent</text><text fill="#000000" font-family="sans-serif" font-size="14" lengthAdjust="spacingAndGlyphs" textLength="149" x="617" y="331.0339">职责: 订阅 PointCloud2</text><text fill="#000000" font-family="sans-serif" font-size="14" lengthAdjust="spacingAndGlyphs" textLength="42" x="670.5" y="350.1018">做补偿</text><text fill="#000000" font-family="sans-serif" font-size="14" lengthAdjust="spacingAndGlyphs" textLength="56" x="663.5" y="369.1697">继续发布</text><!--MD5=[0c115fbe6776d76edb00007f346e8b2d]
entity HW--><path d="M14.0921,17.2588 C17.4244,11.2406 23.3066,11.3231 26.4681,17.433 C30.3142,10.7242 35.9005,10.8996 40.0931,17.0664 C43.2142,11.9229 48.8454,11.6399 52.3203,16.64 C56.0148,11.42 60.3118,11.8147 63.611,17.0662 C67.2906,11.0724 71.3696,11.3954 75.4308,16.6657 C79.5247,10.6012 83.4361,10.691 88.108,16.0229 C90.7134,10.2836 96.6147,9.6154 100.1536,15.0132 C104.0721,9.3361 108.0849,9.4374 111.3563,15.6242 C115.484,9.7457 121.1014,10.7067 123.7393,17.1245 C126.6345,9.868 132.7106,10.6159 136.676,16.0321 C141.1813,11.7116 144.8952,12.698 147.8354,17.8718 C152.0803,11.6984 156.724,11.8605 160.6599,18.1889 C169.2703,19.5518 171.1078,27.0568 166.0656,33.3028 C171.1853,41.1312 168.1948,46.7841 159.8021,49.3327 C156.3581,55.4013 152.6495,55.5897 148.6171,49.892 C145.5629,55.8763 140.2182,56.3219 135.8642,51.4137 C131.994,56.7528 128.2003,56.7136 123.8065,52.0443 C120.1436,58.0197 115.24,58.093 111.9598,51.6784 C108.0634,57.6469 103.3235,58.157 99.4428,51.6626 C97.2838,57.0112 91.6032,58.7292 87.6993,53.6226 C84.1723,59.4173 78.3628,59.1051 76.0467,52.486 C71.6029,59.279 66.3757,59.0923 62.7989,51.6776 C59.5573,56.9886 54.6383,57.3415 50.781,52.3993 C46.1269,57.1228 41.6992,57.3408 38.6188,50.7132 C34.8905,55.7953 30.9695,57.0667 26.6664,51.3494 C22.1711,56.6727 18.5386,55.883 15.6374,49.8072 C6.0101,46.9783 2.8599,41.4869 10.2318,33.1435 C4.4838,26.5574 6.4718,20.5962 14.0921,17.2588 " fill="#F8F8F8" style="stroke: #000000; stroke-width: 1.5;"/><text fill="#000000" font-family="sans-serif" font-size="14" lengthAdjust="spacingAndGlyphs" textLength="131" x="21" y="37.9659">Velodyne Hardware</text><!--MD5=[aa9c3ddf9637eb46c9c075b0440018d5]
entity ScanChan--><path d="M245.5,8.5 L457.5,8.5 C462.5,8.5 462.5,32.5679 462.5,32.5679 C462.5,32.5679 462.5,56.6358 457.5,56.6358 L245.5,56.6358 C240.5,56.6358 240.5,32.5679 240.5,32.5679 C240.5,32.5679 240.5,8.5 245.5,8.5 " fill="#F8F8F8" style="stroke: #383838; stroke-width: 1.5;"/><path d="M457.5,8.5 C452.5,8.5 452.5,32.5679 452.5,32.5679 C452.5,56.6358 457.5,56.6358 457.5,56.6358 " fill="none" style="stroke: #383838; stroke-width: 1.5;"/><text fill="#000000" font-family="sans-serif" font-size="14" lengthAdjust="spacingAndGlyphs" textLength="92" x="300.5" y="28.4659">Scan Channel</text><text fill="#000000" font-family="sans-serif" font-size="14" lengthAdjust="spacingAndGlyphs" textLength="202" x="245.5" y="47.5339">/apollo/sensor/lidar16/.../Scan</text><!--MD5=[8fee5c19084dac7d021e99c39d945293]
entity CloudChan--><path d="M575,8.5 L836,8.5 C841,8.5 841,32.5679 841,32.5679 C841,32.5679 841,56.6358 836,56.6358 L575,56.6358 C570,56.6358 570,32.5679 570,32.5679 C570,32.5679 570,8.5 575,8.5 " fill="#F8F8F8" style="stroke: #383838; stroke-width: 1.5;"/><path d="M836,8.5 C831,8.5 831,32.5679 831,32.5679 C831,56.6358 836,56.6358 836,56.6358 " fill="none" style="stroke: #383838; stroke-width: 1.5;"/><text fill="#000000" font-family="sans-serif" font-size="14" lengthAdjust="spacingAndGlyphs" textLength="141" x="630" y="28.4659">PointCloud2 Channel</text><text fill="#000000" font-family="sans-serif" font-size="14" lengthAdjust="spacingAndGlyphs" textLength="251" x="575" y="47.5339">/apollo/sensor/lidar16/.../PointCloud2</text><!--MD5=[e36d57c4f304c3c65a4e19f3fdc80c3a]
entity OutChan--><path d="M580,528 L735,528 C740,528 740,552.0679 740,552.0679 C740,552.0679 740,576.1358 735,576.1358 L580,576.1358 C575,576.1358 575,552.0679 575,552.0679 C575,552.0679 575,528 580,528 " fill="#F8F8F8" style="stroke: #383838; stroke-width: 1.5;"/><path d="M735,528 C730,528 730,552.0679 730,552.0679 C730,576.1358 735,576.1358 735,576.1358 " fill="none" style="stroke: #383838; stroke-width: 1.5;"/><text fill="#000000" font-family="sans-serif" font-size="14" lengthAdjust="spacingAndGlyphs" textLength="145" x="580" y="547.9659">Compensated Output</text><text fill="#000000" font-family="sans-serif" font-size="14" lengthAdjust="spacingAndGlyphs" textLength="112" x="596.5" y="567.0339">下游感知继续消费</text><path d="M881.5,294.5 L881.5,375.3241 L1053.5,375.3241 L1053.5,304.5 L1043.5,294.5 L881.5,294.5 " fill="#ECECEC" style="stroke: #383838; stroke-width: 1.0;"/><path d="M1043.5,294.5 L1043.5,304.5 L1053.5,304.5 L1043.5,294.5 " fill="#ECECEC" style="stroke: #383838; stroke-width: 1.0;"/><text fill="#000000" font-family="sans-serif" font-size="13" lengthAdjust="spacingAndGlyphs" textLength="104" x="887.5" y="313.397">同一个 process 内</text><text fill="#000000" font-family="sans-serif" font-size="13" lengthAdjust="spacingAndGlyphs" textLength="151" x="887.5" y="331.103">可以加载多个 component</text><text fill="#000000" font-family="sans-serif" font-size="13" lengthAdjust="spacingAndGlyphs" textLength="99" x="887.5" y="348.809">component 分开</text><text fill="#000000" font-family="sans-serif" font-size="13" lengthAdjust="spacingAndGlyphs" textLength="117" x="887.5" y="366.5151">不等于 process 分开</text><path d="M180,538 L180,565.706 A0,0 0 0 0 180,565.706 L279,565.706 A0,0 0 0 0 279,565.706 L279,548 L269,538 L233.5,538 L229.5,383.18 L225.5,538 L180,538 A0,0 0 0 0 180,538 " fill="#ECECEC" style="stroke: #383838; stroke-width: 1.0;"/><path d="M269,538 L269,548 L279,548 L269,538 " fill="#ECECEC" style="stroke: #383838; stroke-width: 1.0;"/><text fill="#000000" font-family="sans-serif" font-size="13" lengthAdjust="spacingAndGlyphs" textLength="78" x="186" y="556.897">这是采集阶段</text><path d="M407,538 L407,565.706 A0,0 0 0 0 407,565.706 L506,565.706 A0,0 0 0 0 506,565.706 L506,548 L496,538 L460.5,538 L456.5,383.18 L452.5,538 L407,538 A0,0 0 0 0 407,538 " fill="#ECECEC" style="stroke: #383838; stroke-width: 1.0;"/><path d="M496,538 L496,548 L506,548 L496,538 " fill="#ECECEC" style="stroke: #383838; stroke-width: 1.0;"/><text fill="#000000" font-family="sans-serif" font-size="13" lengthAdjust="spacingAndGlyphs" textLength="78" x="413" y="556.897">这是转换阶段</text><path d="M839.5,538 L839.5,565.706 L951.5,565.706 L951.5,548 L941.5,538 L839.5,538 " fill="#ECECEC" style="stroke: #383838; stroke-width: 1.0;"/><path d="M941.5,538 L941.5,548 L951.5,548 L941.5,538 " fill="#ECECEC" style="stroke: #383838; stroke-width: 1.0;"/><text fill="#000000" font-family="sans-serif" font-size="13" lengthAdjust="spacingAndGlyphs" textLength="91" x="845.5" y="556.897">这是后处理阶段</text><!--MD5=[422b47fb4ba68a7b87a67f5673860507]
link HW to DriverComp--><path d="M94.39,57.32 C100.43,72.68 110.03,92.29 123.5,106 C128.79,111.39 133.42,108.4 138.5,114 C181.98,161.96 206.32,233.58 218.67,281.96 " fill="none" id="HW-&gt;DriverComp" style="stroke: #383838; stroke-width: 1.0;"/><polygon fill="#383838" points="219.9,286.86,221.5977,277.1586,218.6873,282.0093,213.8366,279.0989,219.9,286.86" style="stroke: #383838; stroke-width: 1.0;"/><text fill="#000000" font-family="sans-serif" font-size="13" lengthAdjust="spacingAndGlyphs" textLength="101" x="124.5" y="101.897">UDP raw packets</text><!--MD5=[fb3e7088952c36429ee9cc41f8c67626]
link DriverComp to ScanChan--><path d="M219.07,286.9 C210.05,233.73 203.97,146.85 243.5,87 C251.1,75.49 261.95,66.37 273.86,59.15 " fill="none" id="DriverComp-&gt;ScanChan" style="stroke: #383838; stroke-width: 1.0;"/><polygon fill="#383838" points="278.3,56.58,268.5101,57.6557,273.9801,59.0976,272.5382,64.5676,278.3,56.58" style="stroke: #383838; stroke-width: 1.0;"/><text fill="#000000" font-family="sans-serif" font-size="13" lengthAdjust="spacingAndGlyphs" textLength="119" x="244.5" y="101.897">writer_-&gt;Write(scan)</text><!--MD5=[c38a0ecf42e7c64a4d08dc4b03786157]
link ScanChan to ConvertComp--><path d="M359.56,56.58 C376.3,104.47 415.15,215.65 438.26,281.81 " fill="none" id="ScanChan-&gt;ConvertComp" style="stroke: #383838; stroke-width: 1.0;"/><polygon fill="#383838" points="440.04,286.88,440.8555,277.065,438.3946,282.1585,433.3011,279.6976,440.04,286.88" style="stroke: #383838; stroke-width: 1.0;"/><text fill="#000000" font-family="sans-serif" font-size="13" lengthAdjust="spacingAndGlyphs" textLength="140" x="375.5" y="101.897">Reader&lt;VelodyneScan&gt;</text><!--MD5=[0d66010816022424c87c2c4dd3393ca0]
link ConvertComp to CloudChan--><path d="M465.82,286.72 C478.98,231.74 508.09,141.58 565.5,87 C577.89,75.22 593.14,65.96 608.97,58.71 " fill="none" id="ConvertComp-&gt;CloudChan" style="stroke: #383838; stroke-width: 1.0;"/><polygon fill="#383838" points="613.9,56.52,604.0511,56.5143,609.3298,58.548,607.296,63.8267,613.9,56.52" style="stroke: #383838; stroke-width: 1.0;"/><text fill="#000000" font-family="sans-serif" font-size="13" lengthAdjust="spacingAndGlyphs" textLength="163" x="566.5" y="101.897">writer_-&gt;Write(point_cloud)</text><!--MD5=[fae2bbac713c330e8fea7ad9016edb26]
link CloudChan to CompComp--><path d="M723.66,56.66 C729.61,65.62 735.46,76.29 738.5,87 C740.8,95.12 739.36,97.6 738.5,106 C732.27,167.1 716.87,236 705.39,281.91 " fill="none" id="CloudChan-&gt;CompComp" style="stroke: #383838; stroke-width: 1.0;"/><polygon fill="#383838" points="704.15,286.84,710.2348,279.0957,705.3761,281.9927,702.4791,277.1339,704.15,286.84" style="stroke: #383838; stroke-width: 1.0;"/><text fill="#000000" font-family="sans-serif" font-size="13" lengthAdjust="spacingAndGlyphs" textLength="123" x="740.5" y="101.897">Reader&lt;PointCloud&gt;</text><!--MD5=[c46ac6e48df273ae4857bda6f7adda1e]
link CompComp to OutChan--><path d="M676.11,383.08 C667.89,410.69 658.64,446.44 654.5,479 C653.43,487.38 654.26,489.56 654.5,498 C654.72,505.93 655.14,514.53 655.59,522.44 " fill="none" id="CompComp-&gt;OutChan" style="stroke: #383838; stroke-width: 1.0;"/><polygon fill="#383838" points="655.9,527.79,659.3785,518.5759,655.6139,522.7982,651.3916,519.0336,655.9,527.79" style="stroke: #383838; stroke-width: 1.0;"/><text fill="#000000" font-family="sans-serif" font-size="13" lengthAdjust="spacingAndGlyphs" textLength="213" x="655.5" y="493.897">writer_-&gt;Write(compensated_cloud)</text><!--MD5=[f7450d0e2137b794dfd9ba74b0c002e2]
link Process to GMN21--><path d="M99.4573,129.9784 C99.8957,129.2492 100.3397,128.5244 100.7894,127.8039 C104.3873,122.0401 108.3517,116.5575 112.7172,111.4294 C121.4483,101.1733 131.7838,92.335 144,85.5 C206.06,50.78 720.55,53.4 784,85.5 C870.6,129.31 926.31,235.38 951.63,294.13 " fill="none" id="Process-GMN21" style="stroke: #383838; stroke-width: 1.0; stroke-dasharray: 7.0,7.0;"/><!--MD5=[5b9485f611e0cd82acc2fc4906df6f40]
link CompComp to GMN30--><path d="M752.35,383.13 C804.4,423.54 871.29,475.77 873.5,479 C885.91,497.11 891.51,522.46 893.89,537.75 " fill="none" id="CompComp-GMN30" style="stroke: #383838; stroke-width: 1.0; stroke-dasharray: 7.0,7.0;"/><!--MD5=[9fc52e9face82b366c192b61b610cf74]
@startuml
skinparam shadowing false
skinparam monochrome true
skinparam defaultTextAlignment center

rectangle "OS Process\nprocess_name = lidar_driver" as Process {
  rectangle "Mainboard / Runtime" as Runtime {
    rectangle "DAG: velodyne_lidar.dag" as DAG {
      rectangle "LidarDriverComponent\n职责: 收硬件 UDP 包\n组装 VelodyneScan\n发布 Scan channel" as DriverComp
      rectangle "VelodyneConvertComponent\n职责: 订阅 Scan\n转成 PointCloud\n发布 PointCloud2 channel" as ConvertComp
      rectangle "CompensatorComponent\n职责: 订阅 PointCloud2\n做补偿\n继续发布" as CompComp
    }
  }
}

cloud "Velodyne Hardware" as HW
queue "Scan Channel\n/apollo/sensor/lidar16/.../Scan" as ScanChan
queue "PointCloud2 Channel\n/apollo/sensor/lidar16/.../PointCloud2" as CloudChan
queue "Compensated Output\n下游感知继续消费" as OutChan

HW - -> DriverComp : UDP raw packets
DriverComp - -> ScanChan : writer_->Write(scan)
ScanChan - -> ConvertComp : Reader<VelodyneScan>
ConvertComp - -> CloudChan : writer_->Write(point_cloud)
CloudChan - -> CompComp : Reader<PointCloud>
CompComp - -> OutChan : writer_->Write(compensated_cloud)

note right of Process
同一个 process 内
可以加载多个 component
component 分开
不等于 process 分开
end note

note bottom of DriverComp
这是采集阶段
end note

note bottom of ConvertComp
这是转换阶段
end note

note bottom of CompComp
这是后处理阶段
end note
@enduml

PlantUML version 1.2020.02(Sun Mar 01 18:22:07 CST 2020)
(GPL source distribution)
Java Runtime: OpenJDK Runtime Environment
JVM: OpenJDK 64-Bit Server VM
Java Version: 21.0.11+10-1-24.04.2-Ubuntu
Operating System: Linux
Default Encoding: UTF-8
Language: en
Country: US
--></g></svg>